<svg width="41" height="40" viewBox="0 0 41 40" fill="none" xmlns="http://www.w3.org/2000/svg">
<g clip-path="url(#clip0_169_15)">
<path d="M34.9434 0H6.58365C3.34378 0 0.708008 2.62848 0.708008 5.85938V34.1406C0.708008 37.3715 3.34378 40 6.58365 40H34.9434C38.1833 40 40.819 37.3715 40.819 34.1406V5.85938C40.819 2.62848 38.1833 0 34.9434 0ZM38.4688 34.1406C38.4688 36.0791 36.8873 37.6562 34.9434 37.6562H6.58365C4.63979 37.6562 3.05826 36.0791 3.05826 34.1406V5.85938C3.05826 3.9209 4.63979 2.34375 6.58365 2.34375H34.9434C36.8873 2.34375 38.4688 3.9209 38.4688 5.85938V34.1406Z" fill="#070707" stroke="#070707" stroke-width="0.5"/>
<path d="M19.5884 16.4844C19.5884 13.8995 17.4799 11.7969 14.8879 11.7969H7.83716V28.2031H14.8879C17.4799 28.2031 19.5884 26.1005 19.5884 23.5156C19.5884 22.1167 18.97 20.8597 17.9919 20C18.97 19.1403 19.5884 17.8833 19.5884 16.4844ZM17.2382 23.5156C17.2382 24.808 16.1839 25.8594 14.8879 25.8594H10.1874V21.1719H14.8879C16.1839 21.1719 17.2382 22.2232 17.2382 23.5156ZM10.1874 18.8281V14.1406H14.8879C16.1839 14.1406 17.2382 15.192 17.2382 16.4844C17.2382 17.7768 16.1839 18.8281 14.8879 18.8281H10.1874Z" fill="#070707" stroke="#070707" stroke-width="0.5"/>
<path d="M27.8144 16.4844C24.5745 16.4844 21.9387 19.1129 21.9387 22.3438C21.9387 25.5746 24.5745 28.2031 27.8144 28.2031C29.9054 28.2031 31.8554 27.081 32.9032 25.2744L30.8688 24.1006C30.2396 25.1855 29.0691 25.8594 27.8144 25.8594C26.2821 25.8594 24.9754 24.8798 24.4903 23.5156H33.69V22.3438C33.69 19.1129 31.0542 16.4844 27.8144 16.4844ZM24.4903 21.1719C24.9754 19.8077 26.2821 18.8281 27.8144 18.8281C29.3466 18.8281 30.6533 19.8077 31.1384 21.1719H24.4903Z" fill="#070707" stroke="#070707" stroke-width="0.5"/>
<path d="M23.1138 11.7969H32.5148V14.1406H23.1138V11.7969Z" fill="#070707" stroke="#070707" stroke-width="0.5"/>
</g>
<defs>
<clipPath id="clip0_169_15">
<rect width="40.111" height="40" fill="white" transform="translate(0.708008)"/>
</clipPath>
</defs>
</svg>
