<svg width="40" height="40" viewBox="0 0 40 40" fill="none" xmlns="http://www.w3.org/2000/svg">
<rect width="39.1083" height="39.998" transform="translate(0.708008)" fill="white"/>
<path d="M31.0039 7.11869L31.3097 6.73445L30.931 6.42181C28.0157 4.01466 24.313 2.57677 20.2621 2.57677C18.8429 2.57677 17.467 2.77559 16.1642 3.1013L15.4371 3.28309L15.8842 3.88464C17.2748 5.75551 19.2725 8.58108 21.6649 13.0064L21.8715 13.3886L22.2788 13.2373C26.8061 11.5563 29.519 8.98483 31.0039 7.11869ZM13.7036 4.36091L13.4586 4.03813L13.0921 4.21102C8.59593 6.33185 5.18957 10.3827 3.84491 15.3296L3.67883 15.9406L4.31168 15.9605C6.78757 16.0385 12.7058 15.9218 19.2634 14.165L19.8819 13.9993L19.5712 13.4394C17.0278 8.85573 14.8888 5.92219 13.7036 4.36091ZM33.1574 8.6199L32.7697 8.15926L32.3881 8.62499C30.7321 10.6462 27.8569 13.2715 23.3045 15.0529L22.7982 15.251L23.0379 15.7389C24.0194 17.7371 24.9716 19.8664 25.8392 22.1658L25.9821 22.5447L26.3825 22.4836C29.6757 21.9807 32.7199 21.9807 35.0193 22.1608C35.5784 22.2072 35.9392 22.2593 36.3591 22.3199C36.4475 22.3327 36.5386 22.3459 36.6347 22.3594L37.1467 22.4317L37.2017 21.9175C37.2691 21.2869 37.3079 20.6536 37.3079 19.999C37.3079 15.6455 35.7306 11.677 33.1574 8.6199ZM21.0104 16.2472L20.8253 15.876L20.4263 15.9894C12.7131 18.1807 5.91836 18.1138 3.80231 18.0284L3.32048 18.0089L3.28361 18.4897L3.28103 18.5233C3.24446 18.9998 3.20693 19.4889 3.20693 20.0086C3.20693 25.2424 5.4713 29.9144 9.04225 33.1113L9.41504 33.4451L9.74852 33.072C10.6436 32.0707 11.8442 30.7954 13.3039 29.4642L13.3058 29.4624C16.0521 26.9307 19.5855 24.2519 23.4345 23.0831L23.9514 22.9261L23.7551 22.4229C22.8935 20.2152 21.9659 18.163 21.0104 16.2472ZM30.5 24.1434L30.5 24.1434L30.4946 24.1436C29.4834 24.1924 28.4071 24.2899 27.3126 24.4359L26.7178 24.5152L26.9032 25.0859C27.8269 27.9298 28.591 30.9423 29.0846 34.0761L29.2089 34.865L29.8643 34.4087C33.0503 32.1901 35.4604 28.8931 36.5831 25.0227L36.7483 24.4531L36.159 24.3866C34.6989 24.2217 32.8476 24.0555 30.5 24.1434ZM24.8439 25.3287L24.6903 24.8753L24.2307 25.009C20.8494 25.9929 17.3126 28.544 14.6322 31.0043C13.3369 32.183 12.2908 33.3018 11.4513 34.2183L11.0386 34.6688L11.5619 34.9842C14.1075 36.5186 17.0634 37.4213 20.2527 37.4213C22.6464 37.4213 24.9041 36.9156 26.966 36.0246L27.314 35.8741L27.2631 35.4984C26.7788 31.9246 25.9246 28.5185 24.8439 25.3287ZM1.20801 19.999C1.20801 9.24581 9.77525 0.5 20.2621 0.5C30.749 0.5 39.3163 9.24581 39.3163 19.999C39.3163 30.7522 30.749 39.498 20.2621 39.498C9.77525 39.498 1.20801 30.7522 1.20801 19.999Z" fill="#070707" stroke="#070707"/>
</svg>
