<svg width="90" height="88" viewBox="0 0 90 88" fill="none" xmlns="http://www.w3.org/2000/svg">
<path d="M4.36255 3.95215H86.1231V84.055H4.36255V3.95215Z" fill="url(#paint0_radial_167_586)"/>
<path d="M4.36255 3.95255H86.1231V84.0554H4.36255V3.95255ZM0.646973 87.797H89.8565V0.210938H0.646973V87.797ZM63.7582 42.43C65.6517 42.43 66.3305 42.43 66.5091 42.358C66.5091 42.0882 66.5806 41.9083 66.5806 41.7284C66.5806 39.7137 65.616 35.9721 61.7575 35.9721C58.1848 35.9721 56.6664 39.1201 56.2913 42.448H63.7582V42.43ZM56.2198 47.5567C56.2913 52.6115 58.6671 56.0113 64.3298 56.0113C66.527 56.0113 68.4205 55.7055 70.3855 54.86C70.6534 54.7521 70.832 54.7881 70.832 55.1299V59.8069C70.832 60.1846 70.7249 60.3645 70.4569 60.5624C68.4919 61.5338 66.0268 61.9835 62.99 61.9835C53.1831 61.9835 49.5032 54.6801 49.5032 46.5673C49.5032 37.735 54.0405 30.5036 62.0254 30.5036C70.1354 30.5036 72.9578 37.3572 72.9578 42.9336C72.9578 44.7325 72.8506 46.1896 72.6541 46.9091C72.5827 47.2149 72.4755 47.3228 72.1718 47.3948C71.4215 47.5027 69.2422 47.6646 65.9732 47.6646H56.2377V47.5567H56.2198ZM36.2843 43.7431C35.2483 39.5878 32.7117 30.5396 31.7828 26.1504H31.7113C30.9253 30.5216 28.8889 37.9328 27.3705 43.7431H36.2843ZM25.8522 49.8053L22.9226 60.9941C22.8511 61.2999 22.7439 61.4079 22.3688 61.4079H16.8848C16.5096 61.4079 16.4382 61.2999 16.5096 60.8502L27.0669 23.6859C27.2455 23.0204 27.3705 22.4807 27.442 20.6099C27.442 20.3401 27.5492 20.2322 27.7457 20.2322H35.5519C35.8199 20.2322 35.9271 20.3041 35.9985 20.6099L47.8062 60.9222C47.8777 61.228 47.8062 61.4079 47.5025 61.4079H41.3754C41.0717 61.4079 40.8931 61.2999 40.8216 61.0301L37.767 49.8053H25.8522Z" fill="#D8A1FF"/>
<defs>
<radialGradient id="paint0_radial_167_586" cx="0" cy="0" r="1" gradientUnits="userSpaceOnUse" gradientTransform="translate(31.315 21.9111) scale(62.1407 60.585)">
<stop stop-color="#442F55" stop-opacity="0.98"/>
<stop offset="1" stop-color="#12002C"/>
</radialGradient>
</defs>
</svg>
