<svg width="21" height="20" viewBox="0 0 21 20" fill="none" xmlns="http://www.w3.org/2000/svg">
<path d="M9.47395 0.85958C9.7738 -0.0606967 11.0757 -0.0606959 11.3756 0.859581L13.1267 6.23398C13.2608 6.64561 13.6445 6.92418 14.0775 6.92418H19.7382C20.7076 6.92418 21.1099 8.16521 20.3249 8.73398L15.7501 12.0486C15.3986 12.3033 15.2515 12.7555 15.386 13.1682L17.1345 18.5349C17.4346 19.4557 16.3813 20.2227 15.597 19.6544L11.0115 16.3321C10.6614 16.0784 10.1881 16.0784 9.83804 16.3321L5.25249 19.6544C4.46823 20.2227 3.41494 19.4557 3.71497 18.5348L5.46354 13.1682C5.59799 12.7555 5.45091 12.3033 5.09945 12.0486L0.524581 8.73398C-0.260426 8.16521 0.141905 6.92418 1.1113 6.92418H6.77206C7.20498 6.92418 7.58874 6.64561 7.72286 6.23398L9.47395 0.85958Z" fill="#E5E5E5"/>
</svg>
