<svg width="60" height="89" viewBox="0 0 60 89" fill="none" xmlns="http://www.w3.org/2000/svg">
<path d="M15.3433 88.2109C23.3818 88.2109 29.9019 81.6451 29.9019 73.5503V58.8896H15.3433C7.30478 58.8896 0.784668 65.4554 0.784668 73.5503C0.784668 81.6451 7.30478 88.2109 15.3433 88.2109Z" fill="#0ACF83"/>
<path d="M0.784668 44.2104C0.784668 36.1156 7.30478 29.5498 15.3433 29.5498H29.9019V58.889H15.3433C7.30478 58.871 0.784668 52.3052 0.784668 44.2104Z" fill="#A259FF"/>
<path d="M0.784668 14.8715C0.784668 6.77673 7.30478 0.210938 15.3433 0.210938H29.9019V29.5501H15.3433C7.30478 29.5501 0.784668 22.9664 0.784668 14.8715Z" fill="#F24E1E"/>
<path d="M29.9199 0.210938H44.4785C52.517 0.210938 59.0371 6.77673 59.0371 14.8715C59.0371 22.9664 52.517 29.5322 44.4785 29.5322H29.9199V0.210938Z" fill="#FF7262"/>
<path d="M59.0369 44.2104C59.0369 52.3052 52.5168 58.871 44.4783 58.871C36.4398 58.871 29.9197 52.3052 29.9197 44.2104C29.9197 36.1156 36.4398 29.5498 44.4783 29.5498C52.5168 29.5498 59.0369 36.1156 59.0369 44.2104Z" fill="#1ABCFE"/>
</svg>
