<svg width="22" height="20" viewBox="0 0 22 20" fill="none" xmlns="http://www.w3.org/2000/svg">
<path d="M10.0853 0.85958C10.3851 -0.0606967 11.687 -0.0606959 11.9869 0.859581L13.738 6.23398C13.8721 6.64561 14.2559 6.92418 14.6888 6.92418H20.3495C21.3189 6.92418 21.7213 8.16521 20.9363 8.73398L16.3614 12.0486C16.0099 12.3033 15.8629 12.7555 15.9973 13.1682L17.7459 18.5349C18.0459 19.4557 16.9926 20.2227 16.2084 19.6544L11.6228 16.3321C11.2728 16.0784 10.7994 16.0784 10.4494 16.3321L5.86382 19.6544C5.07956 20.2227 4.02627 19.4557 4.3263 18.5348L6.07487 13.1682C6.20932 12.7555 6.06224 12.3033 5.71078 12.0486L1.13591 8.73398C0.350903 8.16521 0.753233 6.92418 1.72263 6.92418H7.38338C7.81631 6.92418 8.20007 6.64561 8.33419 6.23398L10.0853 0.85958Z" fill="#070707"/>
</svg>
