<svg width="90" height="88" viewBox="0 0 90 88" fill="none" xmlns="http://www.w3.org/2000/svg">
<path d="M4.29541 3.95215H86.0559V84.055H4.29541V3.95215Z" fill="url(#paint0_radial_167_574)"/>
<path d="M4.29541 3.95255H86.0559V84.0554H4.29541V3.95255ZM0.579834 87.797H89.7893V0.210938H0.579834V87.797ZM59.0108 31.439C59.0108 31.1332 59.118 30.9893 59.4574 30.9893H65.2987C65.6024 30.9893 65.7453 31.0972 65.7453 31.439V60.9761C65.7453 61.2819 65.6738 61.4258 65.2987 61.4258H59.5288C59.1537 61.4258 59.0465 61.246 59.0465 60.9401V31.439H59.0108V31.439ZM58.5999 22.9304C58.5999 20.538 60.2791 19.1169 62.387 19.1169C64.6556 19.1169 66.174 20.6459 66.174 22.9304C66.174 25.3949 64.5841 26.744 62.3155 26.744C60.1719 26.762 58.5999 25.4128 58.5999 22.9304ZM41.8799 43.7431C40.8438 39.5878 38.3786 30.5396 37.4497 26.1504H37.3783C36.5923 30.5216 34.6273 37.9328 33.0732 43.7431H41.8799ZM31.5548 49.8053L28.6253 61.0301C28.5538 61.3359 28.4466 61.4079 28.0715 61.4079H22.6053C22.2302 61.4079 22.1587 61.2999 22.2302 60.8502L32.7874 23.65C32.9661 22.9844 33.0911 22.3728 33.1625 20.538C33.1625 20.2681 33.2697 20.1602 33.4662 20.1602H41.2725C41.5405 20.1602 41.6476 20.2321 41.7191 20.538L53.5446 60.9222C53.6161 61.228 53.5446 61.4079 53.2409 61.4079H47.0781C46.7744 61.4079 46.5958 61.3359 46.5243 61.0661L43.4697 49.8053H31.5548Z" fill="#FF7F18"/>
<defs>
<radialGradient id="paint0_radial_167_574" cx="0" cy="0" r="1" gradientUnits="userSpaceOnUse" gradientTransform="translate(31.25 21.927) scale(62.1406 60.585)">
<stop stop-color="#423325" stop-opacity="0.98"/>
<stop offset="1" stop-color="#1C0A00"/>
</radialGradient>
</defs>
</svg>
