<svg width="40" height="40" viewBox="0 0 40 40" fill="none" xmlns="http://www.w3.org/2000/svg">
<path d="M12.0644 0.50961H12.5644V0.5H28.4692C34.4338 0.5 39.3163 5.48469 39.3163 11.612V28.386C39.3163 34.5136 34.4335 39.498 28.4786 39.498H12.0644C6.09854 39.498 1.20801 34.5216 1.20801 28.4052V11.6216C1.20801 5.49485 6.09934 0.50961 12.0644 0.50961ZM3.21634 11.6303V11.6312V28.4149C3.21634 33.401 7.14389 37.4316 12.0644 37.4316H28.4786C33.3818 37.4316 37.3079 33.3995 37.3079 28.3956V11.6216C37.3079 6.6174 33.3815 2.58565 28.4692 2.58565H12.0644C7.15168 2.58565 3.22626 6.61773 3.21634 11.6303ZM31.3007 7.6997C31.3007 7.10977 31.7547 6.66168 32.3048 6.66168C32.855 6.66168 33.309 7.10977 33.309 7.6997C33.309 8.28963 32.855 8.73772 32.3048 8.73772C31.7547 8.73772 31.3007 8.28963 31.3007 7.6997ZM10.2424 20.0038C10.2424 14.3481 14.7671 9.73772 20.2715 9.73772C25.776 9.73772 30.3007 14.3481 30.3007 20.0038C30.3007 25.6596 25.776 30.2699 20.2715 30.2699C14.7671 30.2699 10.2424 25.6596 10.2424 20.0038ZM28.2924 20.0038C28.2924 15.4702 24.7322 11.8137 20.2715 11.8137C15.8109 11.8137 12.2507 15.4702 12.2507 20.0038C12.2507 24.5374 15.8109 28.1939 20.2715 28.1939C24.7322 28.1939 28.2924 24.5374 28.2924 20.0038Z" fill="#070707" stroke="#070707"/>
</svg>
