<svg width="90" height="88" viewBox="0 0 90 88" fill="none" xmlns="http://www.w3.org/2000/svg">
<path d="M4.22607 3.93652H85.8915V83.8906H4.22607V3.93652Z" fill="url(#paint0_radial_2532_8)"/>
<path d="M4.22606 3.9364H85.8914V83.8905H4.22606V3.9364ZM0.513184 87.6277H89.5864V0.199219H0.513184V87.6277ZM60.5796 36.0797C57.6522 36.0797 56.6525 37.571 56.6525 38.8108C56.6525 40.1583 57.313 41.0926 61.2579 43.1409C67.0771 45.9797 68.8979 48.7107 68.8979 52.6994C68.8979 58.6825 64.3639 61.8986 58.2412 61.8986C55.0103 61.8986 52.2256 61.2338 50.637 60.2996C50.3692 60.1917 50.3335 59.9941 50.3335 59.7066V54.1907C50.3335 53.8134 50.512 53.7056 50.7798 53.8853C53.1182 55.4125 55.7957 56.0952 58.2412 56.0952C61.1687 56.0952 62.4003 54.8555 62.4003 53.1845C62.4003 51.837 61.5435 50.6512 57.795 48.6927C52.5291 46.1594 50.3335 43.59 50.3335 39.2779C50.3335 34.4627 54.0821 30.456 60.5796 30.456C63.7748 30.456 66.0061 30.9411 67.2199 31.4981C67.5234 31.6778 67.5948 31.9832 67.5948 32.2527V37.3734C67.5948 37.6788 67.4163 37.8585 67.0414 37.7507C65.3992 36.7086 62.9894 36.0797 60.5796 36.0797ZM28.6632 40.5176C29.52 40.5895 30.1805 40.5895 31.662 40.5895C35.9997 40.5895 40.0874 39.0623 40.0874 33.1152C40.0874 28.3718 37.16 25.9822 32.2154 25.9822C30.7338 25.9822 29.3236 26.054 28.6453 26.09L28.6632 40.5176ZM22.0407 20.6818C22.0407 20.4123 22.5584 20.2327 22.8618 20.2327C25.2359 20.1249 28.7703 20.053 32.4296 20.053C42.7114 20.053 46.7277 25.7306 46.7277 32.9714C46.7277 42.4581 39.8911 46.5367 31.5014 46.5367C30.0912 46.5367 29.6093 46.4648 28.6096 46.4648V60.8026C28.6096 61.1081 28.5025 61.2518 28.1634 61.2518H22.487C22.1835 61.2518 22.0407 61.144 22.0407 60.8026V20.6818Z" fill="#31C5F0"/>
<defs>
<radialGradient id="paint0_radial_2532_8" cx="0" cy="0" r="1" gradientUnits="userSpaceOnUse" gradientTransform="translate(31.1305 21.8743) scale(62.0565 60.4753)">
<stop stop-color="#34364E" stop-opacity="0.98"/>
<stop offset="1" stop-color="#0C0824"/>
</radialGradient>
</defs>
</svg>
