<svg width="301" height="60" viewBox="0 0 301 60" fill="none" xmlns="http://www.w3.org/2000/svg">
<path d="M154.766 28.9994C152.285 28.9994 150.496 29.8132 148.682 30.6422V49.4009C150.419 49.5664 151.415 49.5664 153.064 49.5664C159.02 49.5664 159.836 46.8387 159.836 43.0302V34.0709C159.836 31.2584 158.903 28.9994 154.766 28.9994ZM115.21 27.9757C111.077 27.9757 110.134 30.2444 110.134 33.0541V34.6329H120.28V33.0541C120.28 30.2444 119.337 27.9757 115.21 27.9757ZM38.5806 47.5008C38.5806 49.7236 39.6294 50.8781 41.944 50.8781C44.4269 50.8781 45.8972 50.0686 47.7096 49.2368V44.787H42.2806C39.7101 44.787 38.5806 45.2655 38.5806 47.5008ZM193.245 28.9994C189.105 28.9994 187.671 31.2584 187.671 34.0709V44.335C187.671 47.1545 189.105 49.4204 193.245 49.4204C197.373 49.4204 198.818 47.1545 198.818 44.335V34.0709C198.817 31.2584 197.372 28.9994 193.245 28.9994ZM18.2946 59.0098H6.12635V29.5572H0.0463867V19.4087H6.12774V13.3134C6.12774 5.0329 9.55928 0.110229 19.3128 0.110229H27.4333V10.2616H22.3577C18.5603 10.2616 18.3099 11.6804 18.3099 14.3274L18.2946 19.4073H27.489L26.4138 29.5558H18.2946V59.0098ZM59.8807 59.0863H49.7391L49.3009 56.5213C44.6703 59.0863 40.5377 59.5022 37.8114 59.5022C30.3739 59.5022 26.4151 54.5336 26.4151 47.6622C26.4151 39.5556 31.0346 36.6623 39.2984 36.6623H47.7096V34.9097C47.7096 30.7715 47.2353 29.5572 40.8716 29.5572H30.4671L31.4839 19.4087H42.8565C56.8191 19.4087 59.8807 23.8194 59.8807 34.9918V59.0863ZM94.3672 30.3014C88.0563 29.2192 86.2439 28.9814 83.2074 28.9814C77.7533 28.9814 76.105 30.1846 76.105 34.8165V43.5783C76.105 48.2102 77.7533 49.419 83.2074 49.419C86.2439 49.419 88.0563 49.177 94.3672 48.0906V57.9902C88.8394 59.2296 85.2382 59.555 82.1947 59.555C69.1307 59.555 63.9382 52.685 63.9382 42.7604V35.6511C63.9382 25.7181 69.1307 18.8356 82.1947 18.8356C85.2382 18.8356 88.8394 19.1624 94.3672 20.4074V30.3014ZM132.447 42.7604H110.133V43.5783C110.133 48.2102 111.782 49.419 117.235 49.419C122.137 49.419 125.129 49.177 131.428 48.0906V57.9902C125.353 59.2296 122.187 59.555 116.226 59.555C103.161 59.555 97.9656 52.685 97.9656 42.7604V34.6315C97.9656 25.9476 101.82 18.8356 115.208 18.8356C128.596 18.8356 132.447 25.8656 132.447 34.6315V42.7604ZM172.002 42.9482C172.002 52.5403 169.26 59.537 152.652 59.537C146.654 59.537 143.136 59.0098 136.517 57.9916V3.15925L148.681 1.12982V20.31C151.31 19.3335 154.712 18.837 157.808 18.837C169.974 18.837 172 24.291 172 33.0555V42.9482H172.002ZM210.995 43.1568C210.995 51.4317 207.579 59.4577 193.285 59.4577C178.985 59.4577 175.504 51.4317 175.504 43.1568V35.167C175.504 26.8879 178.985 18.8606 193.285 18.8606C207.579 18.8606 210.995 26.8879 210.995 35.167V43.1568ZM249.962 43.1568C249.962 51.4317 246.542 59.4577 232.251 59.4577C217.95 59.4577 214.47 51.4317 214.47 43.1568V35.167C214.47 26.8879 217.95 18.8606 232.251 18.8606C246.542 18.8606 249.962 26.8879 249.962 35.167V43.1568ZM289.951 59.0098H276.766L265.615 40.3943V59.0098H253.446V3.15786L265.615 1.12843V37.0838L276.766 19.4087H289.951L277.777 38.6973L289.951 59.0098ZM232.209 28.9994C228.076 28.9994 226.642 31.2584 226.642 34.0709V44.335C226.642 47.1545 228.076 49.4204 232.209 49.4204C236.336 49.4204 237.796 47.1545 237.796 44.335V34.0709C237.796 31.2584 236.336 28.9994 232.209 28.9994ZM296.896 52.0632C298.945 52.0632 300.577 53.7338 300.577 55.8203C300.577 57.9387 298.944 59.5912 296.881 59.5912C294.828 59.5912 293.163 57.9387 293.163 55.8203C293.163 53.7338 294.828 52.0632 296.881 52.0632H296.896ZM296.881 52.6474C295.23 52.6474 293.879 54.0676 293.879 55.8203C293.879 57.6049 295.231 59.007 296.896 59.007C298.563 59.0237 299.894 57.6049 299.894 55.837C299.894 54.069 298.563 52.6474 296.896 52.6474H296.881ZM296.181 58.0069H295.514V53.8145C295.864 53.7658 296.198 53.7171 296.699 53.7171C297.333 53.7171 297.748 53.8507 298.002 54.0329C298.248 54.2179 298.38 54.5002 298.38 54.8994C298.38 55.4531 298.016 55.7855 297.567 55.9204V55.9524C297.933 56.0206 298.182 56.3516 298.266 56.9678C298.364 57.6202 298.465 57.8692 298.531 58.0055H297.831C297.732 57.8692 297.631 57.4867 297.547 56.9344C297.45 56.4017 297.18 56.2014 296.646 56.2014H296.183V58.0069H296.181ZM296.181 55.6867H296.665C297.213 55.6867 297.679 55.485 297.679 54.9662C297.679 54.599 297.415 54.2332 296.665 54.2332C296.447 54.2332 296.295 54.2499 296.181 54.2652V55.6867Z" fill="black"/>
</svg>
