<svg width="301" height="61" viewBox="0 0 301 61" fill="none" xmlns="http://www.w3.org/2000/svg">
<path d="M154.766 29.4748C152.285 29.4748 150.496 30.2885 148.682 31.1175V49.8763C150.419 50.0418 151.415 50.0418 153.064 50.0418C159.02 50.0418 159.836 47.3141 159.836 43.5056V34.5463C159.836 31.7337 158.903 29.4748 154.766 29.4748ZM115.21 28.451C111.077 28.451 110.134 30.7197 110.134 33.5295V35.1082H120.28V33.5295C120.28 30.7197 119.337 28.451 115.21 28.451ZM38.5806 47.9762C38.5806 50.199 39.6294 51.3535 41.944 51.3535C44.4269 51.3535 45.8972 50.5439 47.7096 49.7121V45.2624H42.2806C39.7101 45.2624 38.5806 45.7409 38.5806 47.9762ZM193.245 29.4748C189.105 29.4748 187.671 31.7337 187.671 34.5463V44.8103C187.671 47.6298 189.105 49.8957 193.245 49.8957C197.373 49.8957 198.818 47.6298 198.818 44.8103V34.5463C198.817 31.7337 197.372 29.4748 193.245 29.4748ZM18.2946 59.4851H6.12635V30.0326H0.0463867V19.884H6.12774V13.7887C6.12774 5.50824 9.55928 0.585571 19.3128 0.585571H27.4333V10.7369H22.3577C18.5603 10.7369 18.3099 12.1557 18.3099 14.8028L18.2946 19.8826H27.489L26.4138 30.0312H18.2946V59.4851ZM59.8807 59.5616H49.7391L49.3009 56.9967C44.6703 59.5616 40.5377 59.9775 37.8114 59.9775C30.3739 59.9775 26.4151 55.009 26.4151 48.1375C26.4151 40.0309 31.0346 37.1377 39.2984 37.1377H47.7096V35.385C47.7096 31.2469 47.2353 30.0326 40.8716 30.0326H30.4671L31.4839 19.884H42.8565C56.8191 19.884 59.8807 24.2948 59.8807 35.4671V59.5616ZM94.3672 30.7767C88.0563 29.6946 86.2439 29.4567 83.2074 29.4567C77.7533 29.4567 76.105 30.6599 76.105 35.2919V44.0536C76.105 48.6856 77.7533 49.8943 83.2074 49.8943C86.2439 49.8943 88.0563 49.6523 94.3672 48.5659V58.4655C88.8394 59.7049 85.2382 60.0304 82.1947 60.0304C69.1307 60.0304 63.9382 53.1604 63.9382 43.2357V36.1264C63.9382 26.1935 69.1307 19.3109 82.1947 19.3109C85.2382 19.3109 88.8394 19.6378 94.3672 20.8827V30.7767ZM132.447 43.2357H110.133V44.0536C110.133 48.6856 111.782 49.8943 117.235 49.8943C122.137 49.8943 125.129 49.6523 131.428 48.5659V58.4655C125.353 59.7049 122.187 60.0304 116.226 60.0304C103.161 60.0304 97.9656 53.1604 97.9656 43.2357V35.1069C97.9656 26.423 101.82 19.3109 115.208 19.3109C128.596 19.3109 132.447 26.3409 132.447 35.1069V43.2357ZM172.002 43.4235C172.002 53.0157 169.26 60.0123 152.652 60.0123C146.654 60.0123 143.136 59.4851 136.517 58.4669V3.6346L148.681 1.60516V20.7853C151.31 19.8089 154.712 19.3123 157.808 19.3123C169.974 19.3123 172 24.7663 172 33.5309V43.4235H172.002ZM210.995 43.6322C210.995 51.9071 207.579 59.933 193.285 59.933C178.985 59.933 175.504 51.9071 175.504 43.6322V35.6424C175.504 27.3633 178.985 19.3359 193.285 19.3359C207.579 19.3359 210.995 27.3633 210.995 35.6424V43.6322ZM249.962 43.6322C249.962 51.9071 246.542 59.933 232.251 59.933C217.95 59.933 214.47 51.9071 214.47 43.6322V35.6424C214.47 27.3633 217.95 19.3359 232.251 19.3359C246.542 19.3359 249.962 27.3633 249.962 35.6424V43.6322ZM289.951 59.4851H276.766L265.615 40.8697V59.4851H253.446V3.6332L265.615 1.60377V37.5591L276.766 19.884H289.951L277.777 39.1727L289.951 59.4851ZM232.209 29.4748C228.076 29.4748 226.642 31.7337 226.642 34.5463V44.8103C226.642 47.6298 228.076 49.8957 232.209 49.8957C236.336 49.8957 237.796 47.6298 237.796 44.8103V34.5463C237.796 31.7337 236.336 29.4748 232.209 29.4748ZM296.896 52.5386C298.945 52.5386 300.577 54.2091 300.577 56.2956C300.577 58.4141 298.944 60.0665 296.881 60.0665C294.828 60.0665 293.163 58.4141 293.163 56.2956C293.163 54.2091 294.828 52.5386 296.881 52.5386H296.896ZM296.881 53.1228C295.23 53.1228 293.879 54.543 293.879 56.2956C293.879 58.0802 295.231 59.4823 296.896 59.4823C298.563 59.499 299.894 58.0802 299.894 56.3123C299.894 54.5444 298.563 53.1228 296.896 53.1228H296.881ZM296.181 58.4822H295.514V54.2898C295.864 54.2411 296.198 54.1925 296.699 54.1925C297.333 54.1925 297.748 54.326 298.002 54.5082C298.248 54.6932 298.38 54.9756 298.38 55.3748C298.38 55.9284 298.016 56.2608 297.567 56.3958V56.4278C297.933 56.4959 298.182 56.827 298.266 57.4432C298.364 58.0955 298.465 58.3445 298.531 58.4808H297.831C297.732 58.3445 297.631 57.962 297.547 57.4098C297.45 56.877 297.18 56.6767 296.646 56.6767H296.183V58.4822H296.181ZM296.181 56.1621H296.665C297.213 56.1621 297.679 55.9604 297.679 55.4416C297.679 55.0743 297.415 54.7085 296.665 54.7085C296.447 54.7085 296.295 54.7252 296.181 54.7405V56.1621Z" fill="white"/>
</svg>
