<svg width="650" height="675" viewBox="0 0 650 675" fill="none" xmlns="http://www.w3.org/2000/svg">
<g clip-path="url(#clip0_14710_200)">
<path d="M495.47 604.757C493.023 604.757 490.648 603.927 488.734 602.403C486.82 600.878 485.479 598.749 484.932 596.364C484.385 593.979 484.663 591.478 485.721 589.272C486.779 587.065 488.554 585.283 490.757 584.216C500.066 579.729 508.968 574.44 517.362 568.411C519.692 566.854 522.534 566.262 525.291 566.761C528.049 567.259 530.505 568.808 532.142 571.082C533.779 573.355 534.47 576.176 534.068 578.949C533.666 581.722 532.204 584.23 529.989 585.946C520.578 592.696 510.603 598.62 500.173 603.654C498.709 604.372 497.101 604.749 495.47 604.757Z" fill="#EAEAEA"/>
<path d="M400 627.027C355.098 627.027 311.205 613.712 273.87 588.766C236.536 563.82 207.437 528.363 190.254 486.88C173.071 445.396 168.575 399.748 177.335 355.709C186.095 311.67 207.717 271.218 239.467 239.468C271.218 207.717 311.67 186.095 355.709 177.335C399.748 168.575 445.396 173.071 486.879 190.254C528.363 207.438 563.82 236.536 588.766 273.871C613.712 311.205 627.027 355.098 627.027 400C627.027 403.795 626.908 407.47 626.681 411.265C626.459 414.11 625.139 416.757 623 418.645C620.862 420.534 618.072 421.516 615.221 421.384C612.36 421.206 609.687 419.899 607.789 417.75C605.891 415.601 604.925 412.786 605.103 409.924C605.308 406.584 605.405 403.341 605.405 400C605.405 359.375 593.358 319.662 570.788 285.883C548.218 252.104 516.138 225.777 478.605 210.23C441.072 194.684 399.772 190.616 359.927 198.541C320.082 206.467 283.483 226.03 254.756 254.756C226.03 283.483 206.467 320.083 198.541 359.927C190.616 399.772 194.683 441.072 210.23 478.605C225.777 516.138 252.104 548.218 285.883 570.788C319.661 593.359 359.374 605.405 400 605.405C403.243 605.405 406.486 605.308 409.73 605.103C411.149 605.014 412.573 605.206 413.918 605.667C415.264 606.128 416.505 606.85 417.572 607.791C418.638 608.733 419.509 609.875 420.135 611.152C420.76 612.43 421.127 613.818 421.216 615.238C421.305 616.658 421.113 618.081 420.652 619.426C420.19 620.772 419.469 622.014 418.527 623.08C417.586 624.147 416.444 625.018 415.167 625.643C413.889 626.268 412.501 626.636 411.081 626.724C407.373 626.919 403.686 627.027 400 627.027Z" fill="#EAEAEA"/>
<path d="M577.179 534.486C575.188 534.486 573.236 533.937 571.538 532.898C569.84 531.859 568.462 530.372 567.555 528.6C566.648 526.828 566.248 524.84 566.399 522.855C566.55 520.87 567.247 518.966 568.411 517.351C574.426 508.989 579.727 500.136 584.26 490.886C585.541 488.334 587.779 486.393 590.487 485.485C593.194 484.578 596.151 484.779 598.711 486.044C601.271 487.309 603.227 489.535 604.151 492.237C605.075 494.939 604.893 497.897 603.644 500.465C598.582 510.785 592.662 520.661 585.946 529.989C584.946 531.38 583.629 532.513 582.105 533.295C580.58 534.077 578.892 534.485 577.179 534.486Z" fill="#EAEAEA"/>
<path d="M462.4 455.449C460.19 455.447 458.033 454.768 456.22 453.502C454.407 452.237 453.026 450.446 452.263 448.371C451.499 446.297 451.39 444.038 451.95 441.899C452.51 439.761 453.713 437.845 455.395 436.411L498.184 400L455.395 363.589C454.314 362.666 453.425 361.54 452.779 360.273C452.134 359.007 451.744 357.626 451.632 356.209C451.52 354.792 451.688 353.367 452.127 352.015C452.566 350.663 453.267 349.411 454.19 348.33C455.112 347.249 456.239 346.36 457.505 345.714C458.772 345.069 460.153 344.679 461.57 344.567C462.987 344.455 464.412 344.623 465.764 345.062C467.116 345.501 468.368 346.202 469.449 347.124L521.903 391.762C523.097 392.777 524.057 394.039 524.714 395.462C525.372 396.884 525.713 398.433 525.713 400C525.713 401.567 525.372 403.116 524.714 404.538C524.057 405.961 523.097 407.223 521.903 408.238L469.449 452.876C467.482 454.547 464.982 455.46 462.4 455.449Z" fill="#EAEAEA"/>
<path d="M337.6 455.449C335.03 455.452 332.542 454.54 330.584 452.876L278.13 408.238C276.936 407.223 275.976 405.961 275.318 404.538C274.661 403.116 274.32 401.567 274.32 400C274.32 398.433 274.661 396.884 275.318 395.462C275.976 394.039 276.936 392.777 278.13 391.762L330.584 347.124C332.767 345.261 335.602 344.341 338.463 344.567C341.325 344.793 343.98 346.146 345.843 348.33C347.707 350.513 348.627 353.347 348.401 356.209C348.175 359.071 346.821 361.726 344.638 363.589L301.816 400L344.605 436.411C346.288 437.845 347.49 439.761 348.05 441.899C348.61 444.038 348.501 446.297 347.738 448.371C346.974 450.446 345.593 452.237 343.78 453.502C341.968 454.768 339.811 455.447 337.6 455.449Z" fill="#EAEAEA"/>
<path d="M363.567 509.027C362.283 509.023 361.009 508.792 359.805 508.346C357.117 507.349 354.936 505.326 353.74 502.721C352.543 500.116 352.431 497.142 353.427 494.454L426.302 298.032C426.799 296.701 427.553 295.481 428.522 294.442C429.49 293.402 430.654 292.564 431.946 291.974C433.239 291.384 434.635 291.055 436.055 291.005C437.475 290.954 438.89 291.184 440.221 291.681C441.552 292.178 442.772 292.932 443.812 293.901C444.851 294.869 445.69 296.033 446.28 297.325C446.869 298.618 447.199 300.014 447.249 301.433C447.299 302.853 447.07 304.269 446.573 305.6L373.697 501.968C372.931 504.038 371.55 505.824 369.739 507.086C367.928 508.348 365.775 509.025 363.567 509.027Z" fill="#EAEAEA"/>
<path d="M446.27 778.378H353.73C348.778 778.342 343.987 776.623 340.142 773.503C336.297 770.384 333.628 766.049 332.573 761.211L322.551 711.189C291.64 703.493 262.057 691.205 234.789 674.735L192.368 702.941C188.241 705.697 183.292 706.95 178.351 706.489C173.41 706.029 168.778 703.882 165.232 700.411L99.8054 634.887C96.2775 631.312 94.0991 626.624 93.6417 621.622C93.1843 616.62 94.4763 611.615 97.2973 607.46L125.405 565.297C108.901 538.028 96.6215 508.417 88.9837 477.47L38.9189 467.46C34.0555 466.422 29.6913 463.757 26.5465 459.905C23.4018 456.052 21.6646 451.243 21.6216 446.27V353.73C21.6576 348.779 23.3767 343.987 26.4966 340.142C29.6165 336.297 33.9514 333.628 38.7892 332.573L88.9081 322.519C96.5474 291.578 108.823 261.971 125.319 234.703L97.0594 192.433C94.2976 188.304 93.0415 183.351 93.5022 178.405C93.9629 173.459 96.1123 168.823 99.5891 165.276L165.113 99.7622C168.681 96.2286 173.365 94.0426 178.365 93.5773C183.365 93.112 188.371 94.3963 192.53 97.2109L234.692 125.373C261.978 108.875 291.588 96.5686 322.53 88.865L332.54 38.919C333.578 34.0556 336.243 29.6914 340.095 26.5467C343.948 23.402 348.757 21.6647 353.73 21.6217H446.27C451.221 21.6577 456.013 23.3769 459.858 26.4967C463.703 29.6166 466.372 33.9516 467.427 38.7893L477.449 88.8109C508.442 96.4821 538.096 108.798 565.405 125.341L607.568 97.0704C611.696 94.3085 616.649 93.0524 621.595 93.5131C626.541 93.9738 631.177 96.1233 634.724 99.6001L700.249 165.114C703.793 168.675 705.987 173.36 706.453 178.363C706.918 183.366 705.627 188.375 702.8 192.53L674.692 234.789C691.168 262.05 703.456 291.63 711.146 322.541L760.995 332.541C765.874 333.561 770.258 336.219 773.42 340.072C776.582 343.926 778.331 348.745 778.378 353.73V446.27C778.342 451.222 776.623 456.013 773.503 459.858C770.383 463.703 766.049 466.372 761.211 467.427L711.189 477.46C703.499 508.37 691.211 537.95 674.735 565.211L702.951 607.633C705.706 611.76 706.957 616.71 706.495 621.651C706.032 626.592 703.884 631.223 700.411 634.768L634.886 700.292C631.318 703.824 626.634 706.009 621.635 706.474C616.635 706.939 611.63 705.656 607.47 702.843L565.308 674.66C538.016 691.197 508.38 703.513 477.405 711.189L467.459 761.081C466.422 765.945 463.757 770.309 459.905 773.453C456.052 776.598 451.243 778.335 446.27 778.378ZM234.595 651.06C236.618 651.054 238.602 651.624 240.313 652.703C269.135 671.01 300.898 684.209 334.205 691.719C336.243 692.18 338.104 693.222 339.562 694.719C341.02 696.215 342.013 698.102 342.422 700.151L353.741 756.757H446.173L457.611 700.151C458.02 698.101 459.015 696.213 460.475 694.716C461.935 693.22 463.798 692.178 465.838 691.719C499.146 684.247 530.904 671.049 559.697 652.714C561.493 651.618 563.56 651.05 565.663 651.075C567.767 651.1 569.82 651.716 571.589 652.854L619.578 684.962L684.962 619.6L653.438 572.303C653.031 571.81 652.669 571.282 652.357 570.724C651.416 569.034 650.945 567.123 650.995 565.189C651.044 563.255 651.612 561.37 652.638 559.73C670.95 530.911 684.149 499.147 691.654 465.838C692.115 463.8 693.157 461.939 694.654 460.481C696.15 459.023 698.037 458.03 700.086 457.622L756.757 446.26V353.73L700.151 342.378C698.102 341.97 696.215 340.977 694.719 339.519C693.222 338.061 692.18 336.2 691.719 334.162C684.214 300.853 671.015 269.089 652.703 240.27C651.668 238.635 651.091 236.753 651.032 234.819C650.973 232.885 651.434 230.971 652.368 229.276C652.744 228.585 653.197 227.94 653.719 227.351L684.94 180.4L619.589 114.995L571.632 147.146C569.864 148.286 567.81 148.904 565.707 148.929C563.603 148.954 561.535 148.385 559.741 147.287C530.947 128.951 499.189 115.753 465.881 108.281C463.841 107.822 461.978 106.781 460.518 105.284C459.058 103.787 458.063 101.899 457.654 99.8487L446.259 43.2433H353.73L342.389 99.8487C341.981 101.898 340.988 103.785 339.53 105.282C338.071 106.778 336.211 107.82 334.173 108.281C300.865 115.792 269.102 128.99 240.281 147.297C238.514 148.416 236.46 148.999 234.368 148.974C232.277 148.949 230.237 148.318 228.497 147.157L180.389 115.049L114.995 180.4L147.157 228.487C148.318 230.227 148.949 232.266 148.974 234.358C148.999 236.449 148.416 238.503 147.297 240.27C128.991 269.069 115.823 300.827 108.378 334.13C107.9 336.285 106.773 338.242 105.15 339.738C103.527 341.234 101.484 342.197 99.2973 342.497L43.2432 353.741V446.27L99.6648 457.578C101.773 457.951 103.724 458.936 105.276 460.411C106.827 461.885 107.91 463.784 108.389 465.87C115.834 499.173 129.002 530.931 147.308 559.73C148.427 561.495 149.009 563.546 148.986 565.635C148.963 567.725 148.335 569.763 147.178 571.503L115.178 619.6L180.422 685.016L227.719 653.47C229.663 651.912 232.081 651.062 234.573 651.06H234.595Z" fill="#EAEAEA"/>
</g>
<defs>
<clipPath id="clip0_14710_200">
<rect width="650" height="675" fill="white"/>
</clipPath>
</defs>
</svg>
