<svg width="302" height="86" viewBox="0 0 302 86" fill="none" xmlns="http://www.w3.org/2000/svg">
<path d="M16.1304 0.369004C10.0104 2.97 3.20194 10.2375 1.05994 19.4175C-1.61756 30.969 9.62794 35.865 10.5459 34.2585C11.6169 32.346 8.55694 31.734 7.86844 25.767C7.02694 18.0405 10.6224 9.31951 15.2124 5.57101C16.0539 4.88251 16.0539 5.877 16.0539 7.6365C16.0539 10.926 15.9009 40.0725 15.9009 46.1925C15.9009 54.4545 15.5949 57.0555 14.9829 59.58C14.3709 62.181 13.3764 63.9405 14.1414 64.629C14.9829 65.394 18.5784 63.558 20.6439 60.651C23.1684 57.132 24.0099 53.001 24.1629 48.411C24.3159 42.903 24.3159 34.182 24.3159 29.286C24.3159 24.696 24.3924 11.385 24.2394 3.3525C24.1629 1.3635 18.7314 -0.701996 16.1304 0.369004ZM234.691 39.0015C234.461 43.2855 233.543 46.6515 232.396 49.023C230.101 53.613 225.358 54.99 223.369 48.411C222.298 44.8155 222.221 38.8485 222.986 33.7995C223.751 28.674 226.046 24.849 229.718 25.2315C233.39 25.614 235.073 30.2805 234.691 39.0015ZM173.108 65.6235C173.032 72.738 171.961 79.011 169.513 80.7705C166.07 83.3715 161.557 81.3825 162.475 76.1805C163.316 71.5905 167.294 66.8475 173.108 61.11C173.108 61.1865 173.108 62.487 173.108 65.6235ZM172.114 38.925C171.884 42.8265 170.89 46.728 169.819 48.9465C167.524 53.5365 162.781 54.99 160.792 48.3345C159.415 43.821 159.797 38.007 160.409 34.335C161.251 29.592 163.393 25.155 167.141 25.155C170.89 25.2315 172.649 29.286 172.114 38.925ZM136.465 38.925C136.235 43.056 135.47 46.4985 134.17 49.023C131.798 53.5365 127.208 54.99 125.143 48.411C123.689 43.668 124.148 37.242 124.76 33.723C125.678 28.521 127.973 24.849 131.492 25.2315C135.164 25.614 136.924 30.2805 136.465 38.925ZM300.022 43.7445C299.104 43.7445 298.721 44.6625 298.415 46.1925C297.268 51.5475 296.044 52.7715 294.437 52.7715C292.678 52.7715 291.071 50.094 290.689 44.739C290.383 40.5315 290.383 32.805 290.842 25.155C290.918 23.5485 290.459 22.0185 286.252 20.4885C284.416 19.8 281.815 18.882 280.438 22.0185C276.689 31.0455 275.236 38.16 274.93 41.067C274.93 41.22 274.7 41.22 274.7 40.914C274.471 38.619 274.012 34.335 273.935 25.461C273.935 23.7015 273.553 22.248 271.64 21.024C270.416 20.259 266.668 18.882 265.291 20.4885C264.143 21.8655 262.766 25.461 261.313 29.745C260.165 33.264 259.4 35.6355 259.4 35.6355C259.4 35.6355 259.4 26.226 259.4 22.6305C259.4 21.2535 258.482 20.7945 258.176 20.718C256.952 20.3355 254.428 19.7235 253.433 19.7235C252.133 19.7235 251.827 20.412 251.827 21.483C251.827 21.636 251.597 33.876 251.597 42.444C251.597 42.8265 251.597 43.209 251.597 43.668C250.909 47.646 248.537 53.001 246.013 53.001C243.488 53.001 242.264 50.7825 242.264 40.5315C242.264 34.5645 242.417 31.9635 242.494 27.6795C242.57 25.2315 242.647 23.319 242.647 22.86C242.647 21.5595 240.352 20.871 239.281 20.6415C238.21 20.412 237.292 20.259 236.527 20.3355C235.532 20.412 234.767 21.1005 234.767 22.0185C234.767 22.554 234.767 23.472 234.767 23.472C233.467 21.4065 231.325 19.953 229.871 19.494C226.046 18.3465 222.068 19.341 219.008 23.5485C216.637 26.9145 215.183 30.663 214.571 36.171C214.189 40.149 214.265 44.2035 215.03 47.646C214.112 51.471 212.506 53.0775 210.67 53.0775C208.069 53.0775 206.156 48.7935 206.386 41.373C206.539 36.477 207.533 33.0345 208.604 28.062C209.063 25.92 208.681 24.849 207.763 23.778C206.921 22.7835 205.085 22.3245 202.484 22.9365C200.648 23.3955 197.971 23.8545 195.523 24.237C195.523 24.237 195.676 23.625 195.752 22.6305C196.364 17.199 190.474 17.658 188.638 19.4175C187.49 20.412 186.725 21.636 186.496 23.8545C186.037 27.297 188.867 28.98 188.867 28.98C187.949 33.264 185.654 38.772 183.283 42.8265C182.059 44.9685 181.064 46.575 179.84 48.258C179.84 47.646 179.84 46.9575 179.84 46.3455C179.84 37.395 179.917 30.357 179.993 27.8325C180.07 25.3845 180.146 23.472 180.146 23.0895C180.146 22.095 179.534 21.789 178.387 21.2535C177.316 20.871 176.092 20.565 174.791 20.4885C173.185 20.3355 172.19 21.2535 172.19 22.248C172.19 22.4775 172.19 23.625 172.19 23.625C170.89 21.5595 168.748 20.106 167.294 19.647C163.469 18.4995 159.491 19.494 156.431 23.7015C154.06 27.0675 152.453 31.734 151.994 36.2475C151.612 40.455 151.688 44.0505 152.224 47.034C151.612 50.0175 149.852 53.154 147.863 53.154C145.339 53.154 143.885 50.9355 143.885 40.6845C143.885 34.7175 144.038 32.1165 144.115 27.8325C144.191 25.3845 144.268 23.472 144.268 23.013C144.268 21.7125 141.973 21.024 140.902 20.7945C139.754 20.565 138.836 20.412 138.071 20.4885C137.077 20.565 136.388 21.4065 136.388 22.095V23.625C135.088 21.5595 132.946 20.106 131.492 19.647C127.667 18.4995 123.689 19.5705 120.629 23.7015C118.64 26.4555 117.034 29.5155 116.192 36.171C115.963 38.0835 115.886 39.9195 115.886 41.6025C115.121 46.422 111.602 52.0065 108.772 52.0065C107.089 52.0065 105.482 48.7935 105.482 41.832C105.482 32.652 106.018 19.5705 106.171 18.27C106.171 18.27 109.766 18.1935 110.455 18.1935C112.214 18.1935 113.897 18.1935 116.269 18.117C117.493 18.0405 118.64 13.7565 117.416 13.221C116.881 12.9915 112.903 12.762 111.296 12.762C109.996 12.762 106.324 12.456 106.324 12.456C106.324 12.456 106.63 3.73501 106.706 2.81701C106.783 2.05201 105.788 1.6695 105.253 1.44C103.876 0.828005 102.652 0.598505 101.198 0.292505C99.2094 -0.089995 98.2914 0.292503 98.0619 1.9755C97.7559 4.5765 97.6794 12.15 97.6794 12.15C96.2259 12.15 91.1004 11.844 89.6469 11.844C88.2699 11.844 86.8164 17.811 88.6524 17.811C90.8709 17.8875 94.6959 17.964 97.2204 18.0405C97.2204 18.0405 97.1439 31.3515 97.1439 35.4825C97.1439 35.9415 97.1439 36.324 97.1439 36.783C95.7669 44.0505 90.8709 47.952 90.8709 47.952C91.9419 43.1325 89.7999 39.537 85.8984 36.477C84.4449 35.3295 81.6144 33.1875 78.4779 30.8925C78.4779 30.8925 80.3139 29.0565 81.9204 25.461C83.0679 22.86 83.1444 19.953 80.3139 19.341C75.6474 18.27 71.8224 21.7125 70.6749 25.3845C69.7569 28.215 70.2924 30.2805 71.9754 32.499C72.1284 32.652 72.2049 32.805 72.3579 32.958C71.2869 35.0235 69.8334 37.701 68.6094 39.843C65.2434 45.7335 62.6424 50.4 60.7299 50.4C59.1999 50.4 59.1999 45.657 59.1999 41.2965C59.1999 37.4715 59.5059 31.734 59.7354 25.8435C59.8119 23.8545 58.8174 22.7835 57.2109 21.789C56.2164 21.177 54.0744 19.953 52.8504 19.953C51.0144 19.953 45.6594 20.1825 40.6104 34.794C39.9984 36.63 38.6979 39.996 38.6979 39.996L38.7744 22.4775C38.7744 22.095 38.5449 21.636 38.0859 21.4065C37.2444 20.9475 34.9494 20.0295 32.9604 20.0295C31.9659 20.0295 31.5069 20.4885 31.5069 21.33L31.3539 48.717C31.3539 50.7825 31.4304 53.2305 31.5834 54.3015C31.8129 55.3725 32.1189 56.214 32.5014 56.7495C32.8839 57.285 33.4194 57.6675 34.1844 57.8205C34.9494 57.9735 38.9274 58.509 39.1569 56.979C39.3864 55.143 39.3864 53.154 41.5284 45.81C44.8179 34.335 49.0254 28.674 51.0909 26.685C51.4734 26.3025 51.8559 26.3025 51.8559 26.9145C51.7794 29.439 51.4734 35.712 51.2439 41.067C50.7084 55.3725 53.3094 58.05 57.0579 58.05C59.8884 58.05 63.9429 55.2195 68.2269 48.0285C70.9044 43.5915 73.5054 39.1545 75.4179 36.018C76.7184 37.242 78.1719 38.5425 79.6254 39.9195C82.9914 43.1325 84.1389 46.1925 83.3739 49.0995C82.8384 51.318 80.6964 53.613 76.8714 51.3945C75.8004 50.7825 75.2649 50.247 74.1939 49.482C73.5819 49.0995 72.6639 48.9465 72.1284 49.4055C70.6749 50.4765 69.9099 51.8535 69.4509 53.5365C68.9919 55.143 70.6749 56.061 72.3579 56.826C73.8114 57.5145 76.9479 58.05 79.0134 58.1265C86.8164 58.356 93.1659 54.378 97.5264 43.8975C98.2914 52.9245 101.657 58.05 107.395 58.05C111.296 58.05 115.121 53.0775 116.804 48.105C117.263 50.094 118.028 51.8535 118.946 53.307C123.383 60.345 132.028 58.815 136.388 52.848C137.765 51.012 137.918 50.3235 137.918 50.3235C138.53 55.9845 143.12 57.9735 145.721 57.9735C148.628 57.9735 151.688 56.5965 153.754 51.8535C153.983 52.389 154.289 52.848 154.595 53.307C159.032 60.345 167.677 58.815 172.037 52.848C172.267 52.542 172.42 52.3125 172.573 52.083L172.726 55.8315C172.726 55.8315 170.278 58.1265 168.748 59.5035C162.016 65.6235 156.967 70.29 156.584 75.7215C156.125 82.6065 161.71 85.2075 165.994 85.5135C170.507 85.896 174.332 83.3715 176.704 79.929C178.769 76.869 180.146 70.29 180.07 63.711C179.993 61.11 179.993 57.744 179.917 54.225C182.288 51.471 184.889 48.0285 187.337 43.974C190.015 39.537 192.845 33.6465 194.299 29.0565C194.299 29.0565 196.747 29.0565 199.424 28.9035C200.266 28.827 200.495 29.0565 200.342 29.6685C200.189 30.4335 196.976 42.597 199.883 50.706C201.872 56.214 206.309 58.05 208.91 58.05C211.97 58.05 214.954 55.755 216.484 52.236C216.637 52.6185 216.866 53.001 217.096 53.307C221.533 60.345 230.177 58.815 234.538 52.848C235.532 51.471 236.068 50.3235 236.068 50.3235C236.986 56.214 241.576 57.9735 244.177 57.9735C246.931 57.9735 249.455 56.826 251.597 51.93C251.674 54.1485 251.827 55.908 252.056 56.4435C252.209 56.7495 252.974 57.2085 253.51 57.438C256.034 58.356 258.559 57.897 259.477 57.744C260.165 57.591 260.624 57.0555 260.701 55.755C260.854 52.236 260.777 46.269 261.848 41.832C263.684 34.4115 265.291 31.5045 266.132 30.1275C266.591 29.3625 267.05 29.2095 267.127 30.051C267.127 31.734 267.28 36.783 267.968 43.515C268.504 48.4875 269.192 51.3945 269.728 52.3125C271.258 54.99 273.094 55.0665 274.624 55.0665C275.618 55.0665 277.607 54.837 277.378 53.0775C277.301 52.236 277.454 47.187 279.214 39.843C280.361 35.1 282.274 30.7395 283.039 29.2095C283.268 28.5975 283.421 29.0565 283.421 29.2095C283.268 32.499 282.962 43.209 284.263 49.0995C286.099 57.0555 291.301 57.9735 293.137 57.9735C297.038 57.9735 300.251 54.99 301.322 47.187C301.552 45.198 301.169 43.7445 300.022 43.7445Z" fill="#262626"/>
</svg>
