<svg width="300" height="74" viewBox="0 0 300 74" fill="none" xmlns="http://www.w3.org/2000/svg">
<path d="M118.18 26.4261H127.656V56.1895H118.18V26.4261Z" fill="black"/>
<path d="M129.634 26.426H138.761V30.4952H138.935C141.144 27.2979 143.993 25.5542 148.12 25.5542C154.631 25.5542 158.467 30.2046 158.467 36.8316V56.1893H148.992V38.75C148.992 35.6108 147.423 33.4597 144.342 33.4597C141.203 33.4597 139.11 36.0759 139.11 39.738V56.1893H129.634V26.426Z" fill="black"/>
<path d="M128.602 18.4632C128.602 15.3239 126.057 12.7793 122.918 12.7793C119.779 12.7793 117.234 15.3239 117.234 18.4632C117.234 21.6022 119.779 24.1467 122.918 24.1467C126.057 24.1467 128.602 21.6022 128.602 18.4632Z" fill="black"/>
<path d="M225.11 25.9961C224.84 25.9718 224.53 25.9609 224.167 25.9609C220.563 25.9609 218.121 27.5304 216.028 31.0765H215.854V26.426H206.786V56.1891H216.261V42.819C216.261 36.624 219.692 33.7533 225.11 34.2542V25.9961Z" fill="black"/>
<path d="M271.61 37.4126C267.831 36.7153 264.459 36.4247 264.459 34.332C264.459 32.4716 266.262 31.5997 268.587 31.5997C271.202 31.5997 273.005 32.4135 273.354 35.0877H282.073C281.608 29.2165 277.074 25.554 268.645 25.554C261.611 25.554 255.798 28.8094 255.798 35.0877C255.798 42.0631 261.32 43.4584 266.494 44.3305C270.447 45.0282 274.051 45.3188 274.051 47.9927C274.051 49.9112 272.249 50.9575 269.401 50.9575C266.543 50.9575 264.653 49.7484 264.073 47.2953H255.044C255.709 53.4138 261.08 57.1194 269.459 57.1194C277.249 57.1194 283.003 53.7478 283.003 47.2373C283.003 39.6217 276.841 38.2848 271.61 37.4126Z" fill="black"/>
<path d="M239.809 32.2972C242.89 32.2972 245.099 34.5643 245.448 38.1107H233.705C234.344 34.5643 236.205 32.2972 239.809 32.2972ZM240.332 50.2596C236.437 50.2596 234.228 47.7602 233.647 43.7491H255.039C255.097 37.7036 253.354 32.5297 249.807 29.2746C247.25 26.9494 243.878 25.5541 239.634 25.5541C230.566 25.5541 224.346 32.3552 224.346 41.2497C224.346 50.2596 230.391 57.0614 240.216 57.0614C243.994 57.0614 247.017 56.0731 249.517 54.3291C252.133 52.5271 253.877 49.9693 254.516 47.2954H245.273C244.459 49.1555 242.832 50.2596 240.332 50.2596Z" fill="black"/>
<path d="M299.692 49.1708C299.253 49.1881 298.663 49.2136 298.121 49.2136C296.087 49.2136 294.808 48.6321 294.808 46.3069V32.3553H299.692V26.4259H294.808V17.0086H285.565V26.4259H282.657V32.3553H285.565V48.3415C285.565 54.7362 289.518 56.538 295.041 56.538C297.148 56.538 298.74 56.3802 299.692 56.1946V49.1708Z" fill="black"/>
<path d="M175.389 49.1843C175.011 49.199 174.575 49.2136 174.167 49.2136C172.133 49.2136 170.854 48.6321 170.854 46.3069V32.3553H175.389V26.4259H170.854V17.0086H161.611V26.4259H158.529V32.3553H161.611V48.3415C161.611 54.7362 165.564 56.538 171.086 56.538C172.955 56.538 174.418 56.4136 175.389 56.2561V49.1843Z" fill="black"/>
<path d="M196.029 38.1105C195.68 34.5645 193.47 32.297 190.39 32.297C186.785 32.297 184.925 34.5645 184.286 38.1105H196.029ZM174.927 41.2495C174.927 32.3554 181.147 25.5542 190.215 25.5542C194.459 25.5542 197.831 26.9492 200.388 29.2745C203.934 32.5299 205.678 37.7035 205.62 43.7493H184.228C184.809 47.7601 187.018 50.2598 190.913 50.2598C193.412 50.2598 195.04 49.1554 195.854 47.2953H205.097C204.457 49.9692 202.714 52.527 200.097 54.3293C197.598 56.073 194.575 57.0613 190.797 57.0613C180.972 57.0613 174.927 50.2598 174.927 41.2495Z" fill="black"/>
<path d="M101.725 34.1577C105.445 34.1577 107.538 31.9486 107.538 28.6348C107.538 25.3216 105.387 23.287 101.725 23.287H94.4577V34.1577H101.725ZM84.8647 14.6254H101.319C106.376 14.6254 110.097 16.0204 112.655 18.4621C115.329 20.9615 116.84 24.5078 116.84 28.6931C116.84 36.6571 111.318 42.2961 102.772 42.2961H94.4577V56.1893H84.8647V14.6254Z" fill="black"/>
<path d="M71.8572 36.6569C71.8572 56.4146 55.8402 72.4316 36.0824 72.4316C16.3246 72.4316 0.307617 56.4146 0.307617 36.6569C0.307617 16.8988 16.3246 0.88208 36.0824 0.88208C55.8402 0.88208 71.8572 16.8988 71.8572 36.6569Z" fill="white"/>
<path d="M36.0824 0.881836C16.3246 0.881836 0.307617 16.8988 0.307617 36.6566C0.307617 51.8126 9.73724 64.7689 23.0452 69.9815C22.7325 67.151 22.4498 62.798 23.1692 59.7079C23.8193 56.9159 27.3642 41.9255 27.3642 41.9255C27.3642 41.9255 26.2941 39.7824 26.2941 36.6141C26.2941 31.6396 29.1774 27.9258 32.7674 27.9258C35.8196 27.9258 37.2938 30.2173 37.2938 32.9651C37.2938 36.0346 35.3396 40.6238 34.3311 44.8766C33.4883 48.4373 36.1167 51.3411 39.6287 51.3411C45.9871 51.3411 50.8748 44.6367 50.8748 34.959C50.8748 26.3933 44.7199 20.4044 35.9314 20.4044C25.7522 20.4044 19.7774 28.0393 19.7774 35.9296C19.7774 39.0044 20.9619 42.3015 22.4399 44.0939C22.7323 44.4481 22.7751 44.7584 22.688 45.12C22.4164 46.2499 21.8129 48.6798 21.6944 49.1771C21.5384 49.832 21.1759 49.971 20.4979 49.6554C16.0299 47.5757 13.2364 41.0431 13.2364 35.7962C13.2364 24.5112 21.4358 14.1472 36.8742 14.1472C49.2845 14.1472 58.9287 22.9906 58.9287 34.8091C58.9287 47.1384 51.1548 57.061 40.3648 57.061C36.7396 57.061 33.3317 55.1777 32.1651 52.9531C32.1651 52.9531 30.3713 59.7836 29.9364 61.4575C29.1287 64.5648 26.9484 68.4598 25.49 70.8361C28.8372 71.8725 32.3944 72.4314 36.0824 72.4314C55.8405 72.4314 71.8575 56.4144 71.8575 36.6566C71.8575 16.8988 55.8405 0.881836 36.0824 0.881836Z" fill="black"/>
</svg>
