<svg width="290" height="203" viewBox="0 0 290 203" fill="none" xmlns="http://www.w3.org/2000/svg">
<g clip-path="url(#clip0_14709_171)">
<mask id="mask0_14709_171" style="mask-type:alpha" maskUnits="userSpaceOnUse" x="0" y="0" width="290" height="203">
<path d="M0.0639648 0.531128H289.002V202.363H0.0639648V0.531128Z" fill="white"/>
</mask>
<g mask="url(#mask0_14709_171)">
<path fill-rule="evenodd" clip-rule="evenodd" d="M120.037 22.6264C129.363 12.9173 142.344 6.90481 156.685 6.90481C175.806 6.90481 192.377 17.5275 201.3 33.3554C209.221 29.8145 217.8 27.9865 226.476 27.9909C260.894 27.9909 288.832 56.1411 288.832 90.8773C288.832 125.614 260.894 153.764 226.476 153.764C222.27 153.764 218.169 153.341 214.154 152.542C206.346 166.458 191.421 175.912 174.425 175.912C167.505 175.926 160.674 174.356 154.454 171.323C146.54 189.913 128.11 202.979 106.652 202.979C84.2382 202.979 65.2235 188.851 57.8938 168.986C54.6316 169.675 51.3063 170.021 47.9722 170.019C21.3092 170.019 -0.254883 148.136 -0.254883 121.26C-0.254883 103.202 9.45427 87.4802 23.8587 78.982C20.8028 71.9424 19.2298 64.3487 19.2378 56.6743C19.2378 25.656 44.4136 0.586426 75.4319 0.586426C93.5968 0.586426 109.85 9.24393 120.047 22.6817" fill="black"/>
<path fill-rule="evenodd" clip-rule="evenodd" d="M41.8538 105.484C41.6721 105.957 41.9186 106.056 41.977 106.14C42.5198 106.533 43.0711 106.818 43.6235 107.137C46.5766 108.699 49.3598 109.156 52.2704 109.156C58.1979 109.156 61.884 106.001 61.884 100.923V100.823C61.884 96.1281 57.7199 94.4178 53.832 93.1962L53.3231 93.0316C50.3806 92.0777 47.8418 91.247 47.8418 89.3136V89.2148C47.8418 87.5577 49.329 86.3361 51.6235 86.3361C54.1729 86.3361 57.211 87.1848 59.155 88.2588C59.155 88.2588 59.7307 88.6306 59.94 88.075C60.0537 87.7744 61.0448 85.1219 61.151 84.8245C61.2636 84.5132 61.066 84.2785 60.8631 84.1574C58.6324 82.7977 55.5518 81.8735 52.365 81.8735L51.7733 81.8756C46.3451 81.8756 42.5528 85.158 42.5528 89.8533V89.9542C42.5528 94.9044 46.7381 96.519 50.6473 97.6344L51.2761 97.8299C54.123 98.7052 56.5875 99.4658 56.5875 101.463V101.563C56.5875 103.4 54.9835 104.771 52.4128 104.771C51.4132 104.771 48.2274 104.754 44.775 102.572C44.3576 102.329 44.1196 102.153 43.7977 101.957C43.6278 101.854 43.2029 101.668 43.018 102.224L41.8495 105.475L41.8538 105.484ZM128.637 105.475C128.455 105.949 128.702 106.048 128.762 106.132C129.303 106.525 129.857 106.809 130.409 107.129C133.362 108.691 136.145 109.147 139.056 109.147C144.983 109.147 148.669 105.992 148.669 100.915V100.815C148.669 96.1196 144.516 94.4093 140.617 93.1877L140.109 93.0231C137.166 92.0692 134.627 91.2385 134.627 89.3051V89.2063C134.627 87.5492 136.114 86.3276 138.409 86.3276C140.958 86.3276 143.986 87.1763 145.94 88.2503C145.94 88.2503 146.516 88.6221 146.726 88.0665C146.839 87.7659 147.831 85.1134 147.927 84.816C148.041 84.5047 147.842 84.27 147.64 84.1489C145.409 82.7892 142.329 81.865 139.142 81.865L138.549 81.8671C133.121 81.8671 129.329 85.1495 129.329 89.8448V89.9457C129.329 94.8959 133.514 96.5105 137.423 97.6259L138.051 97.8214C140.908 98.6967 143.362 99.4573 143.362 101.454V101.554C143.362 103.392 141.758 104.762 139.188 104.762C138.186 104.762 134.992 104.745 131.55 102.563C131.132 102.32 130.888 102.152 130.571 101.948C130.464 101.88 129.964 101.685 129.793 102.216L128.624 105.467L128.637 105.475ZM187.899 95.5237C187.899 98.3918 187.364 100.654 186.316 102.258C185.271 103.841 183.692 104.617 181.494 104.617C179.295 104.617 177.723 103.848 176.692 102.269C175.654 100.676 175.131 98.4024 175.131 95.5343C175.131 92.6662 175.657 90.4141 176.692 88.8314C177.72 87.2592 179.284 86.505 181.494 86.505C183.703 86.505 185.275 87.2666 186.316 88.8314C187.37 90.4141 187.899 92.6662 187.899 95.5343V95.5237ZM192.849 90.2123C192.362 88.5658 191.606 87.1211 190.597 85.9101C189.587 84.6991 188.313 83.7218 186.794 83.0207C185.286 82.3143 183.501 81.9585 181.483 81.9585C179.465 81.9585 177.691 82.3165 176.172 83.0207C174.663 83.7261 173.378 84.6991 172.369 85.9101C171.362 87.1211 170.605 88.5658 170.117 90.2123C169.633 91.8482 169.388 93.6328 169.388 95.5343C169.388 97.4358 169.633 99.2204 170.117 100.856C170.602 102.503 171.36 103.947 172.369 105.158C173.379 106.369 174.663 107.336 176.172 108.027C177.691 108.715 179.475 109.066 181.483 109.066C183.491 109.066 185.275 108.715 186.784 108.027C188.292 107.338 189.577 106.369 190.587 105.158C191.595 103.947 192.35 102.503 192.839 100.856C193.321 99.2204 193.566 97.4358 193.566 95.5343C193.566 93.6434 193.321 91.8482 192.839 90.2123H192.849ZM233.524 103.809C233.361 103.328 232.892 103.51 232.892 103.51C232.172 103.785 231.404 104.04 230.586 104.167C229.762 104.297 228.844 104.362 227.878 104.362C225.488 104.362 223.575 103.649 222.216 102.237C220.845 100.824 220.081 98.5511 220.091 95.4706C220.099 92.6662 220.776 90.5629 221.993 88.9482C223.193 87.3548 225.041 86.5262 227.485 86.5262C229.524 86.5262 231.086 86.7631 232.722 87.2751C232.722 87.2751 233.109 87.444 233.295 86.9331C233.73 85.7327 234.05 84.8723 234.517 83.5551C234.649 83.178 234.326 83.0186 234.208 82.9729C233.566 82.7222 232.051 82.3111 230.904 82.138C229.831 81.9744 228.588 81.8894 227.186 81.8894C225.104 81.8894 223.256 82.2453 221.673 82.9506C220.09 83.6549 218.752 84.629 217.689 85.84C216.627 87.051 215.82 88.4957 215.278 90.1422C214.742 91.7781 214.471 93.5733 214.471 95.4748C214.471 99.5752 215.575 102.9 217.764 105.333C219.952 107.776 223.245 109.008 227.537 109.008C230.075 109.008 232.678 108.495 234.548 107.755C234.548 107.755 234.905 107.583 234.749 107.166L233.528 103.809H233.524ZM242.185 92.7618C242.422 91.1684 242.859 89.8405 243.545 88.8101C244.572 87.238 246.137 86.3775 248.336 86.3775C250.535 86.3775 251.99 87.2422 253.031 88.8101C253.722 89.8458 254.023 91.2215 254.136 92.7618L242.132 92.7596L242.185 92.7618ZM258.863 89.2563C258.441 87.6735 257.397 86.0695 256.717 85.3365C255.634 84.1786 254.582 83.3607 253.53 82.9145C252.012 82.2689 250.379 81.9375 248.729 81.9404C246.636 81.9404 244.735 82.2941 243.195 83.0133C241.654 83.7378 240.358 84.7236 239.338 85.9558C238.32 87.188 237.554 88.6433 237.065 90.3111C236.577 91.9576 236.33 93.7635 236.33 95.6543C236.33 97.5877 236.586 99.3829 237.09 101.008C237.598 102.644 238.417 104.078 239.522 105.268C240.627 106.468 242.04 107.403 243.739 108.062C245.428 108.715 247.479 109.054 249.826 109.046C254.67 109.03 257.22 107.952 258.261 107.368C258.447 107.264 258.622 107.084 258.403 106.567L257.309 103.497C257.141 103.039 256.678 103.205 256.678 103.205C255.478 103.653 253.778 104.458 249.794 104.448C247.192 104.444 245.269 103.676 244.058 102.472C242.826 101.24 242.21 99.4445 242.114 96.8951L258.898 96.9078C258.898 96.9078 259.34 96.9036 259.386 96.4723C259.404 96.2938 259.96 93.0305 258.885 89.2595L258.863 89.2563ZM108.021 92.7618C108.257 91.1684 108.695 89.8405 109.38 88.8101C110.409 87.238 111.972 86.3775 114.171 86.3775C116.37 86.3775 117.825 87.2422 118.866 88.8101C119.556 89.8458 119.857 91.2215 119.971 92.7618L107.967 92.7596L108.021 92.7618ZM124.698 89.2563C124.278 87.6735 123.232 86.0695 122.552 85.3365C121.469 84.1786 120.417 83.3607 119.366 82.9145C117.847 82.2689 116.214 81.9375 114.564 81.9404C112.471 81.9404 110.57 82.2941 109.03 83.0133C107.489 83.7378 106.193 84.7236 105.174 85.9558C104.157 87.188 103.389 88.6433 102.9 90.3111C102.413 91.9576 102.167 93.7635 102.167 95.6543C102.167 97.5877 102.421 99.3829 102.928 101.008C103.436 102.644 104.256 104.078 105.35 105.268C106.455 106.468 107.868 107.403 109.567 108.062C111.256 108.715 113.296 109.054 115.654 109.046C120.498 109.03 123.047 107.952 124.088 107.368C124.273 107.264 124.45 107.084 124.23 106.567L123.136 103.497C122.967 103.039 122.504 103.205 122.504 103.205C121.303 103.653 119.604 104.458 115.62 104.448C113.028 104.444 111.095 103.676 109.884 102.472C108.652 101.24 108.035 99.4445 107.94 96.8951L124.724 96.9078C124.724 96.9078 125.166 96.9036 125.211 96.4723C125.229 96.2938 125.786 93.0305 124.71 89.2595L124.698 89.2563ZM71.7971 103.703C71.1395 103.178 71.0482 103.05 70.8304 102.709C70.4979 102.196 70.328 101.466 70.328 100.531C70.328 99.0653 70.8166 98.003 71.8258 97.2913C71.8151 97.2934 73.2705 96.0378 76.691 96.0803C78.2134 96.1076 79.7324 96.2371 81.2375 96.468V104.085H81.2396C81.2396 104.085 79.1151 104.542 76.7143 104.687C73.3044 104.892 71.796 103.705 71.8066 103.708L71.7971 103.703ZM78.4681 91.912C77.7883 91.862 76.9066 91.8376 75.855 91.8376C74.4209 91.8376 73.0293 92.0161 71.7333 92.3666C70.4268 92.7193 69.2476 93.2653 68.2385 93.9919C67.2265 94.7138 66.3942 95.6588 65.8059 96.7538C65.2121 97.8585 64.9093 99.1545 64.9093 100.62C64.9093 102.108 65.1674 103.393 65.6773 104.445C66.177 105.488 66.9292 106.39 67.8656 107.068C68.7972 107.746 69.9477 108.248 71.2755 108.545C72.5927 108.846 74.0799 108.998 75.7158 108.998C77.4367 108.998 79.1469 108.853 80.8041 108.574C82.2155 108.33 83.6215 108.057 85.0213 107.754C85.5801 107.625 86.2004 107.456 86.2004 107.456C86.6147 107.351 86.5828 106.908 86.5828 106.908L86.5733 91.6113C86.5733 88.2545 85.6767 85.7582 83.907 84.2179C82.1436 82.6776 79.5623 81.9022 76.2161 81.9022C74.9627 81.9022 72.9337 82.0721 71.7227 82.3154C71.7227 82.3154 68.0685 83.025 66.5601 84.2062C66.5601 84.2062 66.2287 84.4102 66.4092 84.8723L67.599 88.0591C67.7466 88.4723 68.1492 88.331 68.1492 88.331C68.1492 88.331 68.2757 88.2811 68.4244 88.1929C71.6431 86.4402 75.7222 86.4933 75.7222 86.4933C77.528 86.4933 78.9302 86.8598 79.865 87.5768C80.7796 88.279 81.246 89.3402 81.246 91.571V92.2795C79.8119 92.0713 78.4841 91.9512 78.4841 91.9512L78.4681 91.912ZM213.377 83.2757C213.401 83.2197 213.413 83.1594 213.414 83.0984C213.414 83.0374 213.402 82.9769 213.379 82.9206C213.355 82.8643 213.321 82.8133 213.277 82.7707C213.233 82.728 213.182 82.6945 213.125 82.6723C212.839 82.564 211.415 82.2633 210.32 82.1954C208.217 82.0636 207.049 82.4184 205.997 82.8901C204.958 83.3585 203.809 84.1117 203.171 84.9828L203.169 82.9432C203.169 82.6628 202.971 82.4365 202.688 82.4365H198.396C198.118 82.4365 197.916 82.6628 197.916 82.9432V107.907C197.917 108.041 197.97 108.171 198.066 108.266C198.161 108.361 198.29 108.415 198.425 108.415H202.823C202.958 108.415 203.087 108.361 203.182 108.266C203.277 108.171 203.331 108.041 203.331 107.907V95.3718C203.331 93.6934 203.516 92.0256 203.884 90.974C204.247 89.934 204.741 89.1044 205.35 88.5095C205.931 87.9349 206.641 87.5086 207.421 87.2666C208.154 87.0565 208.912 86.9499 209.674 86.9501C210.55 86.9501 211.511 87.1753 211.511 87.1753C211.834 87.2114 212.014 87.0138 212.123 86.7228C212.411 85.9569 213.228 83.6634 213.387 83.2066" fill="#FFFFFE"/>
<path fill-rule="evenodd" clip-rule="evenodd" d="M172.302 71.7542C171.758 71.5899 171.205 71.4587 170.645 71.3612C169.893 71.2356 169.131 71.1766 168.368 71.1848C165.337 71.1848 162.948 72.041 161.271 73.7322C159.605 75.4106 158.472 77.9674 157.903 81.3317L157.698 82.4672H153.894C153.894 82.4672 153.43 82.4481 153.333 82.9548L152.708 86.4391C152.664 86.7726 152.808 86.9808 153.254 86.9787H156.957L153.2 107.951C152.905 109.64 152.569 111.03 152.196 112.082C151.828 113.121 151.469 113.9 151.027 114.465C150.599 115.012 150.194 115.415 149.493 115.649C148.916 115.844 148.251 115.933 147.522 115.933C147.116 115.933 146.576 115.865 146.178 115.785C145.78 115.707 145.573 115.618 145.274 115.492C145.274 115.492 144.84 115.326 144.669 115.762C144.529 116.118 143.543 118.832 143.426 119.168C143.307 119.499 143.474 119.76 143.684 119.836C144.177 120.012 144.543 120.125 145.215 120.283C146.147 120.503 146.933 120.517 147.67 120.517C149.212 120.517 150.617 120.3 151.783 119.879C152.955 119.456 153.976 118.717 154.879 117.718C155.855 116.639 156.469 115.51 157.057 113.97C157.638 112.443 158.133 110.548 158.529 108.34L162.304 86.9787H167.824C167.824 86.9787 168.289 86.9957 168.386 86.4911L169.011 83.0069C169.054 82.6733 168.912 82.4651 168.464 82.4672H163.106C163.133 82.3461 163.376 80.4617 163.991 78.6877C164.254 77.9303 164.748 77.3195 165.166 76.8999C165.557 76.5002 166.038 76.2007 166.569 76.0267C167.152 75.8467 167.759 75.7592 168.368 75.7675C168.872 75.7675 169.368 75.828 169.745 75.9066C170.264 76.0171 170.466 76.0755 170.602 76.1159C171.148 76.2827 171.221 76.1212 171.328 75.8567L172.61 72.3385C172.741 71.9603 172.42 71.801 172.302 71.7542ZM97.439 107.996C97.439 108.276 97.2393 108.505 96.9589 108.505H92.5154C92.2339 108.505 92.0342 108.276 92.0342 107.996V72.2312C92.0342 71.9518 92.2339 71.7255 92.5154 71.7255H96.9589C97.2393 71.7255 97.439 71.9518 97.439 72.2312V107.996Z" fill="#FFFFFE"/>
</g>
</g>
<defs>
<clipPath id="clip0_14709_171">
<rect width="290" height="202.894" fill="white"/>
</clipPath>
</defs>
</svg>
