<svg width="334" height="122" viewBox="0 0 334 122" fill="none" xmlns="http://www.w3.org/2000/svg">
<path d="M136.636 86.9919V79.5528C137.547 80.3119 138.458 80.9192 139.673 81.5265C140.887 82.1337 142.102 82.5892 143.468 83.0446C144.834 83.5001 146.049 83.8037 147.415 83.9555C148.782 84.1074 149.996 84.2592 151.059 84.2592C154.854 84.2592 157.739 83.5001 159.713 82.1337C161.686 80.7674 162.597 78.6419 162.597 75.9092C162.597 74.391 162.294 73.1764 161.686 72.1137C161.079 71.051 160.168 69.9883 159.105 69.2292C158.043 68.3183 156.676 67.5592 155.158 66.6483C153.64 65.8892 151.97 64.9783 150.3 64.0674C148.478 63.1564 146.656 62.0937 145.138 61.1828C143.468 60.2719 142.102 59.2092 140.887 57.9946C139.673 56.7801 138.762 55.5655 138.003 54.0474C137.244 52.5292 136.94 50.8592 136.94 48.8855C136.94 46.4564 137.547 44.331 138.61 42.5092C139.673 40.6874 141.039 39.1692 142.861 38.1064C144.531 36.8919 146.504 36.1328 148.782 35.5255C151.059 34.9183 153.336 34.6146 155.614 34.6146C160.927 34.6146 164.723 35.2219 167.152 36.5883V43.7237C163.964 41.5983 160.016 40.3837 155.006 40.3837C153.64 40.3837 152.274 40.5355 150.907 40.8392C149.541 41.1428 148.326 41.5983 147.264 42.2055C146.201 42.8128 145.29 43.7237 144.683 44.7864C144.075 45.8492 143.62 47.0637 143.62 48.5819C143.62 49.9483 143.924 51.1628 144.379 52.0737C144.834 53.1364 145.594 54.0474 146.656 54.8064C147.719 55.5655 148.934 56.4764 150.3 57.2355C151.666 57.9946 153.336 58.9055 155.158 59.8165C157.132 60.7274 158.954 61.7901 160.624 62.8528C162.294 63.9155 163.812 65.1301 165.178 66.3446C166.544 67.5592 167.455 69.0774 168.214 70.5955C168.974 72.1137 169.277 73.9355 169.277 75.9092C169.277 78.4901 168.822 80.7674 167.759 82.5892C166.696 84.411 165.33 85.9292 163.66 86.9919C161.838 88.2065 159.864 88.9655 157.587 89.421C155.31 89.8765 152.881 90.1801 150.3 90.1801C149.389 90.1801 148.478 90.1801 147.112 90.0283C145.897 89.8764 144.531 89.7246 143.316 89.421C142.102 89.1174 140.735 88.8137 139.673 88.5101C138.154 87.9028 137.244 87.4474 136.636 86.9919Z" fill="black"/>
<path d="M206.017 89.1173H197.364L180.663 70.7473H180.512V89.1173H174.287V32.3373H180.512V68.3182H180.663L196.604 50.7073H204.651L186.888 69.2291L206.017 89.1173Z" fill="black"/>
<path d="M241.998 50.7074L224.539 95.1901C221.351 103.085 216.948 107.032 211.331 107.032C209.813 107.032 208.446 106.88 207.383 106.576V101.111C208.75 101.566 209.964 101.718 211.027 101.718C214.063 101.718 216.341 99.8965 218.011 96.2528L221.047 88.9655L206.169 50.7074H213.001L223.324 80.1601C223.476 80.4637 223.78 81.5265 224.083 83.0446H224.235C224.387 82.4374 224.539 81.5265 224.994 80.1601L235.773 50.5555H241.998V50.7074Z" fill="black"/>
<path d="M251.563 68.1664V73.48C251.563 76.6682 252.626 79.4009 254.599 81.5264C256.725 83.8037 259.306 84.8664 262.342 84.8664C265.986 84.8664 268.87 83.5 270.996 80.6155C273.121 77.7309 274.184 73.7837 274.184 68.7737C274.184 64.5228 273.273 61.1828 271.299 58.7537C269.326 56.3246 266.745 55.11 263.405 55.11C259.913 55.11 257.028 56.3246 254.903 58.9055C252.626 61.1828 251.563 64.3709 251.563 68.1664ZM251.715 83.5L251.563 106.728H245.49V50.7073H251.563V57.3873H251.715C254.751 52.2255 259.154 49.7964 264.923 49.7964C269.781 49.7964 273.728 51.4664 276.461 54.9582C279.194 58.45 280.56 63.0046 280.56 68.7737C280.56 75.15 279.042 80.3118 275.854 84.1073C272.818 87.9028 268.567 89.8764 263.101 89.8764C258.243 90.0282 254.296 87.9028 251.715 83.5Z" fill="black"/>
<path d="M311.227 66.3446C311.227 62.8528 310.316 59.9682 308.646 57.9946C306.976 56.021 304.699 55.1101 301.663 55.1101C298.778 55.1101 296.349 56.1728 294.375 58.1464C292.402 60.2719 291.187 62.8528 290.58 66.3446H311.227ZM317.452 71.5064H290.58C290.732 75.7573 291.795 79.0973 294.072 81.3746C296.197 83.6519 299.234 84.8664 303.029 84.8664C307.28 84.8664 311.227 83.5001 314.871 80.6155V86.3846C311.531 88.8137 307.128 90.0283 301.511 90.0283C296.197 90.0283 291.946 88.3583 288.758 84.8664C285.722 81.3746 284.204 76.5164 284.204 70.1401C284.204 64.2192 285.874 59.361 289.214 55.5655C292.554 51.7701 296.805 49.9482 301.815 49.9482C306.825 49.9482 310.62 51.6182 313.353 54.8064C316.085 57.9946 317.452 62.5492 317.452 68.3182V71.5064Z" fill="black"/>
<path d="M62.853 89.8763C47.5193 89.8763 40.5357 82.1336 40.5357 76.3645C40.5357 73.48 42.813 71.3545 45.8493 71.3545C52.3775 71.3545 50.7075 81.2227 63.0048 81.2227C69.2293 81.2227 72.873 77.4273 72.873 73.9354C72.873 71.81 71.6584 69.3809 67.5593 68.47L53.8957 64.9782C42.9648 62.2454 40.9911 56.0209 40.9911 50.4036C40.9911 38.7136 51.7702 34.4627 61.942 34.4627C71.3548 34.4627 82.5893 39.6245 82.5893 46.76C82.5893 49.7963 80.0084 51.4663 77.1239 51.4663C71.5066 51.4663 72.4175 43.5718 61.183 43.5718C55.5657 43.5718 52.6811 46.1527 52.6811 49.7963C52.6811 53.44 57.0839 54.6545 60.8793 55.5654L70.8993 57.8427C81.982 60.2718 84.8666 66.8 84.8666 73.0245C84.8666 82.4372 77.4275 89.8763 62.853 89.8763ZM105.21 69.5327C105.666 67.1036 105.818 64.5227 105.818 61.9418C105.818 37.9545 86.5366 18.5218 62.7011 18.5218C60.1202 18.5218 57.6911 18.6736 55.2621 19.1291C51.4666 17.0036 47.2157 15.7891 42.5093 15.7891C28.3902 15.7891 16.8521 27.3272 16.8521 41.5982C16.8521 46.3045 18.0666 50.5554 20.1921 54.3509C19.7366 56.78 19.5848 59.3609 19.5848 61.9418C19.5848 85.9291 38.8657 105.362 62.7011 105.362C65.282 105.362 67.7111 105.21 70.1402 104.755C73.9357 106.88 78.1866 108.095 82.893 108.095C97.012 108.095 108.55 96.5563 108.55 82.2854C108.55 77.7309 107.336 73.3282 105.21 69.5327Z" fill="black"/>
</svg>
