<svg width="300" height="171" viewBox="0 0 300 171" fill="none" xmlns="http://www.w3.org/2000/svg">
<g clip-path="url(#clip0_14709_185)">
<path d="M3.40996 77.9157C2.78403 77.9157 2.28724 78.3998 2.2063 79.09L0.0126953 95.7526L2.2063 112.128C2.28724 112.818 2.78373 113.299 3.40996 113.299C4.01618 113.299 4.50994 112.822 4.60664 112.134L7.20672 95.7522L4.60664 79.0866C4.51297 78.3995 4.01315 77.9157 3.40996 77.9157ZM15.7462 68.8118C15.6429 68.0959 15.13 67.6021 14.4977 67.6021C13.8621 67.6021 13.3362 68.1119 13.2492 68.8118C13.2492 68.8182 10.3006 95.7526 10.3006 95.7526L13.2492 122.096C13.3332 122.803 13.8591 123.313 14.4977 123.313C15.1267 123.313 15.6399 122.816 15.7429 122.103L19.0977 95.7526L15.7462 68.8118ZM62.2143 43.9616C61.0046 43.9616 60.0043 44.9519 59.9464 46.2101L57.5979 95.775L59.9464 127.806C60.0076 129.058 61.0046 130.045 62.2143 130.045C63.4176 130.045 64.4146 129.055 64.4855 127.8V127.81L67.1404 95.775L64.4855 46.2101C64.4143 44.9519 63.4173 43.9616 62.2143 43.9616ZM38.164 61.1886C37.235 61.1886 36.4769 61.9306 36.4023 62.9209L33.7571 95.762L36.4023 127.535C36.4732 128.519 37.2346 129.261 38.164 129.261C39.0833 129.261 39.8414 128.519 39.9223 127.535L42.9289 95.762L39.9223 62.9142C39.8414 61.9306 39.0833 61.1886 38.164 61.1886ZM86.655 130.042C88.1551 130.042 89.3745 128.832 89.4357 127.284L91.7393 95.791L89.439 29.8021C89.3778 28.2535 88.1581 27.0438 86.6583 27.0438C85.1452 27.0438 83.9227 28.2569 83.8739 29.8054L81.8319 95.7877L83.8739 127.293C83.9224 128.829 85.1449 130.042 86.655 130.042ZM136.691 130.191C138.756 130.191 140.459 128.491 140.498 126.4L142.104 95.8104L140.497 19.5982C140.462 17.511 138.755 15.8078 136.691 15.8078C134.623 15.8078 132.916 17.508 132.884 19.6015L131.448 95.7847C131.448 95.8332 132.884 126.419 132.884 126.419C132.917 128.49 134.626 130.191 136.691 130.191ZM111.482 130.071C113.28 130.071 114.728 128.629 114.776 126.79V126.813L116.731 95.7977L114.773 29.3314C114.725 27.4924 113.276 26.0538 111.479 26.0538C109.669 26.0538 108.221 27.4927 108.182 29.3314L106.444 95.801L108.186 126.81C108.224 128.629 109.673 130.071 111.482 130.071ZM50.1423 129.781C51.2102 129.781 52.0749 128.926 52.1556 127.8L54.9881 95.7623L52.1556 65.2857C52.0783 64.16 51.2138 63.3113 50.1423 63.3113C49.0587 63.3113 48.1939 64.166 48.1263 65.2988L45.6323 95.7623L48.1263 127.797C48.1972 128.926 49.0584 129.781 50.1423 129.781ZM26.2827 128.026C27.0632 128.026 27.6955 127.41 27.7858 126.558L30.9666 95.7556L27.7888 63.792C27.6952 62.9372 27.0629 62.3207 26.2824 62.3207C25.4918 62.3207 24.8596 62.9403 24.7789 63.792L21.9788 95.7556L24.7789 126.552C24.8565 127.406 25.4888 128.026 26.2827 128.026ZM124.038 28.2247C122.087 28.2247 120.522 29.7767 120.483 31.7638L118.896 95.8041L120.483 126.619C120.522 128.581 122.083 130.133 124.038 130.133C125.987 130.133 127.542 128.584 127.587 126.597V126.623L129.368 95.8074L127.587 31.7572C127.542 29.7767 125.987 28.2247 124.038 28.2247ZM74.3893 130.107C75.7378 130.107 76.8509 129.006 76.9154 127.603L79.3931 95.7844L76.9154 34.8831C76.8475 33.4764 75.7378 32.3798 74.3893 32.3798C73.028 32.3798 71.9184 33.4797 71.8602 34.8831L69.6665 95.7844L71.8635 127.616C71.9181 129.006 73.0277 130.107 74.3893 130.107ZM102.056 127.103V127.087L104.185 95.7944L102.056 27.5827C102.004 25.8893 100.669 24.5601 99.0201 24.5601C97.3617 24.5601 96.0262 25.8859 95.9814 27.5827L94.0909 95.791L95.9844 127.1C96.0296 128.777 97.3654 130.103 99.0204 130.103C100.672 130.103 102.001 128.777 102.056 127.09L102.056 127.103ZM263.094 56.4752C258.038 56.4752 253.216 57.4979 248.822 59.3399C245.886 26.086 218 0 183.985 0C175.662 0 167.548 1.63892 160.383 4.40995C157.599 5.48751 156.857 6.5972 156.831 8.74898V125.854C156.86 128.113 158.612 129.993 160.815 130.216C160.909 130.226 262.433 130.277 263.091 130.277C283.467 130.277 299.987 113.757 299.987 93.378C299.987 72.999 283.47 56.4752 263.094 56.4752ZM149.288 8.64592C147.072 8.64592 145.253 10.4655 145.22 12.7009L143.556 95.8201L145.224 125.987C145.253 128.191 147.072 130.007 149.288 130.007C151.498 130.007 153.318 128.191 153.35 125.955V125.99L155.16 95.8201L153.35 12.6946C153.318 10.4655 151.498 8.64592 149.288 8.64592ZM29.8087 153.734C25.444 152.708 24.263 152.16 24.263 150.431C24.263 149.212 25.2469 147.95 28.1956 147.95C30.715 147.95 32.6831 148.972 34.4512 150.782L38.4225 146.931C35.8258 144.217 32.6801 142.604 28.3959 142.604C22.9633 142.604 18.5597 145.672 18.5597 150.669C18.5597 156.095 22.1022 157.709 27.1735 158.886C32.364 160.064 33.3094 160.854 33.3094 162.625C33.3094 164.709 31.7705 165.616 28.512 165.616C25.8765 165.616 23.3989 164.712 21.4699 162.464L17.4979 166.006C19.5818 169.074 23.5983 171 28.1953 171C35.7121 171 39.0154 167.461 39.0154 162.232C39.0157 156.251 34.1766 154.757 29.8087 153.734ZM55.1457 142.604C47.6356 142.604 43.1932 148.424 43.1932 156.802C43.1932 165.181 47.6353 170.997 55.1457 170.997C62.6562 170.997 67.1047 165.181 67.1047 156.802C67.1047 148.424 62.6562 142.604 55.1457 142.604ZM55.1457 165.535C50.7037 165.535 48.8517 161.719 48.8517 156.805C48.8517 151.889 50.7034 148.072 55.1457 148.072C59.5945 148.072 61.4398 151.889 61.4398 156.805C61.4398 161.719 59.5945 165.535 55.1457 165.535ZM89.3293 158.496C89.3293 162.899 87.1615 165.616 83.6645 165.616C80.1642 165.616 78.0412 162.822 78.0412 158.418V143.034H72.5312V158.496C72.5312 166.516 77.0188 171 83.6642 171C90.6648 171 94.8359 166.397 94.8359 158.419V143.034H89.3293V158.496ZM118.589 154.68C118.589 156.215 118.667 159.674 118.667 160.696C118.312 159.986 117.409 158.612 116.741 157.586L106.982 143.03H101.714V170.568H107.143V158.451C107.143 156.916 107.066 153.457 107.066 152.434C107.417 153.141 108.327 154.518 108.992 155.544L119.102 170.568H124.018V143.03H118.589L118.589 154.68ZM139.71 143.034H131.097V170.571H139.313C146.395 170.571 153.399 166.477 153.399 156.802C153.399 146.731 147.576 143.034 139.71 143.034ZM139.313 165.222H136.604V148.386H139.514C145.337 148.386 147.737 151.176 147.737 156.802C147.737 161.838 145.098 165.222 139.313 165.222ZM170.429 148.069C172.907 148.069 174.481 149.173 175.464 151.06L180.578 148.702C178.845 145.124 175.697 142.604 170.506 142.604C163.315 142.604 158.276 148.424 158.276 156.802C158.276 165.493 163.112 170.997 170.309 170.997C175.306 170.997 178.61 168.678 180.497 164.784L175.858 162.029C174.402 164.471 172.944 165.532 170.467 165.532C166.338 165.532 163.938 161.754 163.938 156.802C163.935 151.692 166.303 148.069 170.429 148.069ZM190.853 143.034H185.346V170.571H201.896V165.138H190.853V143.034ZM216.403 142.604C208.887 142.604 204.444 148.424 204.444 156.802C204.444 165.181 208.887 170.997 216.403 170.997C223.913 170.997 228.359 165.181 228.359 156.802C228.359 148.424 223.913 142.604 216.403 142.604ZM216.403 165.535C211.954 165.535 210.109 161.719 210.109 156.805C210.109 151.889 211.954 148.072 216.403 148.072C220.843 148.072 222.691 151.889 222.691 156.805C222.691 161.719 220.843 165.535 216.403 165.535ZM250.58 158.496C250.58 162.899 248.422 165.616 244.922 165.616C241.415 165.616 239.295 162.822 239.295 158.418V143.034H233.789V158.496C233.789 166.516 238.273 171 244.922 171C251.922 171 256.09 166.397 256.09 158.419V143.034H250.58V158.496ZM271.585 143.034H262.975V170.571H271.191C278.276 170.571 285.273 166.477 285.273 156.802C285.273 146.731 279.453 143.034 271.585 143.034ZM271.191 165.222H268.478V148.386H271.391C277.208 148.386 279.608 151.176 279.608 156.802C279.608 161.838 276.972 165.222 271.191 165.222Z" fill="black"/>
</g>
<defs>
<clipPath id="clip0_14709_185">
<rect width="300" height="171" fill="white"/>
</clipPath>
</defs>
</svg>
