<svg width="390" height="260" viewBox="0 0 390 260" fill="none" xmlns="http://www.w3.org/2000/svg">
<path d="M109.499 103.485C109.45 103.044 109.058 102.848 108.764 102.848C108.47 102.848 102.049 102.357 102.049 102.357C102.049 102.357 97.5894 97.8974 97.0503 97.4563C96.5602 96.9662 95.629 97.1132 95.2369 97.2113C95.1879 97.2113 94.2566 97.5053 92.7373 97.9954C91.2179 93.6334 88.6203 89.6635 83.9642 89.6635H83.5231C82.2488 87.9971 80.5824 87.2129 79.2101 87.2129C68.4275 87.2129 63.2323 100.691 61.6149 107.553C57.3999 108.876 54.4102 109.758 54.0671 109.905C51.7146 110.64 51.6656 110.689 51.3715 112.895C51.1264 114.561 45 161.956 45 161.956L92.6883 170.876L118.566 165.288C118.615 165.19 109.548 103.926 109.499 103.485ZM90.0907 98.6816C88.9144 99.0247 87.493 99.4658 86.0717 99.9559V99.0737C86.0717 96.4271 85.7286 94.2706 85.0915 92.5552C87.5421 92.8492 89.0614 95.5449 90.0907 98.6816ZM82.1018 93.0943C82.7389 94.7607 83.18 97.1132 83.18 100.348V100.838C80.5334 101.671 77.7397 102.505 74.8481 103.436C76.4654 97.2603 79.5532 94.2215 82.1018 93.0943ZM78.965 90.0556C79.4551 90.0556 79.9453 90.2516 80.3373 90.5457C76.8575 92.1631 73.1817 96.231 71.6623 104.465C69.3588 105.2 67.1532 105.837 65.0457 106.523C66.8102 100.25 71.2212 90.0556 78.965 90.0556Z" fill="white"/>
<path d="M108.764 102.75C108.47 102.75 102.05 102.259 102.05 102.259C102.05 102.259 97.5896 97.7994 97.0505 97.3583C96.8544 97.1622 96.6094 97.0642 96.4133 97.0642L92.8354 170.876L118.714 165.288C118.714 165.288 109.646 103.926 109.597 103.485C109.401 103.044 109.058 102.848 108.764 102.75Z" fill="#8E8E8E"/>
<path d="M83.9642 117.061L80.8274 126.52C80.8274 126.52 77.9847 125.001 74.6029 125.001C69.5547 125.001 69.3097 128.187 69.3097 128.971C69.3097 133.284 80.5824 134.95 80.5824 145.096C80.5824 153.085 75.5342 158.231 68.7215 158.231C60.4876 158.231 56.3706 153.134 56.3706 153.134L58.5761 145.88C58.5761 145.88 62.8892 149.605 66.516 149.605C68.9176 149.605 69.8978 147.742 69.8978 146.37C69.8978 140.734 60.6836 140.489 60.6836 131.176C60.6836 123.384 66.271 115.836 77.5926 115.836C81.8076 115.787 83.9642 117.061 83.9642 117.061Z" fill="black"/>
<path d="M148.758 134.852C146.16 133.48 144.837 132.255 144.837 130.637C144.837 128.579 146.699 127.255 149.591 127.255C152.973 127.255 155.962 128.628 155.962 128.628L158.315 121.423C158.315 121.423 156.159 119.757 149.787 119.757C140.916 119.757 134.74 124.854 134.74 132.01C134.74 136.077 137.632 139.165 141.455 141.371C144.592 143.086 145.67 144.36 145.67 146.223C145.67 148.134 144.102 149.703 141.21 149.703C136.946 149.703 132.878 147.497 132.878 147.497L130.378 154.702C130.378 154.702 134.103 157.201 140.377 157.201C149.493 157.201 156.11 152.692 156.11 144.605C156.011 140.194 152.728 137.156 148.758 134.852ZM185.124 119.659C180.615 119.659 177.086 121.815 174.391 125.05L174.293 125.001L178.214 104.612H168.068L158.168 156.564H168.313L171.695 138.822C173.019 132.108 176.498 127.942 179.733 127.942C182.037 127.942 182.919 129.51 182.919 131.715C182.919 133.088 182.821 134.852 182.478 136.225L178.655 156.564H188.8L192.77 135.587C193.211 133.382 193.505 130.735 193.505 128.922C193.456 123.089 190.467 119.659 185.124 119.659ZM216.443 119.659C204.19 119.659 196.103 130.686 196.103 142.988C196.103 150.83 200.955 157.201 210.071 157.201C222.079 157.201 230.166 146.468 230.166 133.872C230.215 126.569 226 119.659 216.443 119.659ZM211.444 149.458C207.964 149.458 206.542 146.517 206.542 142.792C206.542 136.96 209.532 127.5 215.07 127.5C218.648 127.5 219.874 130.637 219.874 133.627C219.874 139.851 216.786 149.458 211.444 149.458ZM256.191 119.659C249.33 119.659 245.458 125.736 245.458 125.736H245.36L245.948 120.296H236.93C236.489 123.972 235.655 129.608 234.871 133.774L227.863 170.974H238.008L240.851 155.927H241.096C241.096 155.927 243.203 157.25 247.026 157.25C258.985 157.25 266.778 144.998 266.778 132.647C266.729 125.785 263.641 119.659 256.191 119.659ZM246.487 149.556C243.84 149.556 242.272 148.036 242.272 148.036L243.938 138.577C245.115 132.206 248.447 128.04 251.976 128.04C255.113 128.04 256.044 130.931 256.044 133.627C256.093 140.194 252.172 149.556 246.487 149.556ZM281.236 105.102C278.001 105.102 275.404 107.7 275.404 110.984C275.404 113.973 277.315 116.081 280.207 116.081H280.305C283.491 116.081 286.186 113.924 286.235 110.199C286.284 107.21 284.275 105.102 281.236 105.102ZM267.023 156.515H277.168L284.03 120.443H273.835L267.023 156.515ZM309.908 120.394H302.85L303.193 118.727C303.781 115.248 305.84 112.209 309.271 112.209C311.084 112.209 312.506 112.748 312.506 112.748L314.466 104.759C314.466 104.759 312.751 103.877 308.928 103.877C305.35 103.877 301.723 104.906 298.978 107.259C295.499 110.199 293.881 114.463 293.097 118.776L292.803 120.443H288.049L286.529 128.138H291.284L285.892 156.564H296.038L301.429 128.138H308.438L309.908 120.394ZM334.365 120.443C334.365 120.443 327.993 136.47 325.2 145.243H325.102C324.906 142.4 322.602 120.443 322.602 120.443H311.917L318.044 153.477C318.142 154.212 318.093 154.653 317.799 155.143C316.623 157.447 314.613 159.652 312.26 161.269C310.349 162.642 308.193 163.573 306.477 164.161L309.32 172.787C311.378 172.346 315.691 170.631 319.269 167.249C323.876 162.936 328.189 156.221 332.6 147.105L345 120.394H334.365V120.443Z" fill="white"/>
</svg>
