<svg width="380" height="190" viewBox="0 0 380 190" fill="none" xmlns="http://www.w3.org/2000/svg">
<path d="M151.366 44.3968C149.479 44.3968 147.598 44.3905 145.711 44.3905C141.239 44.381 137.113 47.801 133.962 50.5117C130.941 53.2508 128.193 56.2687 125.745 59.5303C124.827 57.0762 123.718 54.6948 122.429 52.4053C121.615 50.7251 120.453 49.2367 119.02 48.0386C117.588 46.8404 115.918 45.9597 114.12 45.4545C112.259 45.2018 110.377 45.1371 108.502 45.2613C106.925 45.255 102.445 45.2613 102.445 45.2613C102.445 45.2613 97.9575 45.255 96.3836 45.2613C94.5093 45.1371 92.6273 45.2018 90.766 45.4545C88.9682 45.9597 87.298 46.8404 85.8657 48.0386C84.4334 49.2367 83.2714 50.7251 82.4566 52.4053C81.1766 54.6902 80.0765 57.0714 79.1665 59.5272C76.7186 56.2655 73.9668 53.2477 70.949 50.5085C67.7918 47.7978 63.672 44.3778 59.1943 44.3873L53.5386 44.3937C50.8449 44.3979 48.1532 44.4021 45.4636 44.4063C43.5003 44.4158 39.162 43.8997 40.188 47.0917C40.4413 47.8643 41.3153 48.5578 41.8125 49.2007L43.437 51.4712L45.717 55.2965L50.7203 64.8282C54.4705 71.7938 58.8099 78.4258 63.691 84.6515C67.3738 89.1988 71.8198 93.7905 77.3235 96.0452C73.1688 103.766 69.0247 111.492 64.8911 119.225L53.3961 140.094C52.7568 141.099 52.347 142.233 52.196 143.415C52.1991 145.55 55.369 145.613 56.8826 145.623L61.791 145.572C64.6346 145.54 67.4783 145.509 70.322 145.477L75.3886 145.363C77.4967 145.178 79.5407 144.543 81.3831 143.502C83.2255 142.461 84.8236 141.038 86.0698 139.327C86.8868 138.187 94.5311 125.647 97.6281 120.581L102.464 112.93L107.296 120.581L118.854 139.327C120.101 141.038 121.699 142.461 123.541 143.502C125.383 144.543 127.427 145.178 129.535 145.363C131.214 145.521 132.924 145.458 134.602 145.477C137.444 145.504 140.287 145.536 143.133 145.572L148.041 145.623C149.555 145.613 152.728 145.55 152.728 143.415C152.579 142.231 152.168 141.097 151.525 140.09L150.986 139.134L140.039 119.225C135.893 111.499 131.745 103.772 127.594 96.0452C133.104 93.7873 137.547 89.1988 141.23 84.6515C146.113 78.4258 150.454 71.7948 154.204 64.8282L159.213 55.2965L161.493 51.4712C162 50.689 162.538 49.929 163.115 49.2007C163.764 48.5863 164.312 47.8707 164.742 47.0917C165.768 43.8997 161.43 44.4158 159.47 44.4063C156.772 44.4021 154.077 44.3979 151.385 44.3937L151.366 44.3968Z" fill="black"/>
<path d="M111.783 62.1712L112.645 62.0256C113.042 61.9418 113.433 61.8285 113.813 61.6867C114.591 61.4157 115.313 61.0059 115.944 60.4771C116.228 60.2747 116.468 60.0173 116.65 59.7202C114.155 59.7677 112.296 59.7519 111.068 59.6569C110.732 59.6062 110.488 60.4707 110.33 62.1902C110.314 62.3232 111.121 62.2377 111.786 62.1459L111.783 62.1712ZM99.2116 73.7771C99.1799 73.8087 99.1641 73.8594 99.1641 73.9037C99.1641 73.9481 99.1957 74.0114 99.2337 74.0462C99.3509 74.1571 99.4807 74.2552 99.6137 74.3439C100.405 74.8696 101.333 75.1419 102.28 75.1292C103.23 75.1464 104.163 74.8723 104.953 74.3439C105.093 74.2547 105.226 74.1552 105.352 74.0462C105.447 73.9671 105.491 73.8436 105.421 73.7296C105.333 73.6409 105.193 73.6409 105.105 73.7232L104.747 73.9924H104.744C104.01 74.4617 103.157 74.7112 102.286 74.7112C101.415 74.7112 100.563 74.4617 99.8291 73.9924H99.8227C99.706 73.9089 99.5939 73.8191 99.4871 73.7232C99.4491 73.6916 99.3984 73.6726 99.3446 73.6757C99.2907 73.6789 99.2432 73.7074 99.2116 73.7391V73.7771ZM110.149 72.1431C110.139 72.1225 110.131 72.1014 110.124 72.0797C110.13 72.1019 110.14 72.1241 110.156 72.1431H110.149ZM116.03 65.1637C115.812 64.6801 115.486 64.2532 115.077 63.9161C113.937 63.0611 112.353 63.1244 111.286 64.0744C110.836 64.5321 110.474 65.0689 110.219 65.6577C109.579 67.0293 109.264 68.5304 109.301 70.0436C109.33 70.7348 109.598 71.3947 110.057 71.9119C110.662 72.4638 111.423 72.8145 112.236 72.9157C113.037 73.1564 113.895 73.1216 114.668 72.8112C115.439 72.2475 115.954 71.4015 116.103 70.4584C116.46 69.3531 116.617 68.1926 116.565 67.0321C116.5 66.3717 116.318 65.7283 116.027 65.1321L116.03 65.1637Z" fill="white"/>
<path d="M113.262 67.9503C113.656 67.8006 114.063 67.6862 114.478 67.6083C113.591 67.6716 113.129 67.3138 113.046 66.5379L112.882 64.9546C112.913 65.6576 112.777 66.3574 112.489 66.9971C112.386 67.1745 112.239 67.3219 112.061 67.4246L111.533 67.5924C111.338 67.6626 111.134 67.7073 110.928 67.7254C111.897 67.6399 112.416 67.8838 112.502 68.4221L112.818 69.9579C112.834 68.7546 112.999 68.1054 113.293 67.9819L113.262 67.9503ZM114.474 70.3506L114.379 69.3531C114.395 69.7869 114.316 70.2176 114.148 70.6198C114.075 70.7306 113.98 70.8224 113.832 70.8889L113.521 70.9839C113.395 71.0251 113.268 71.0536 113.141 71.0663C113.73 71.0156 114.091 71.1613 114.091 71.4938L114.259 72.4311C114.259 71.6901 114.354 71.3006 114.554 71.2278C114.792 71.1292 115.04 71.057 115.295 71.0124C114.75 71.0441 114.459 70.8161 114.408 70.3791" fill="white"/>
<path d="M94.1832 62.2156C94.0122 60.4676 93.7715 59.6031 93.4422 59.6822C92.1755 59.7772 90.3547 59.7931 87.853 59.7456C88.0357 60.0414 88.2745 60.2985 88.556 60.5024C89.1882 61.0301 89.9101 61.4398 90.6872 61.7121C91.0671 61.8525 91.4565 61.9657 91.8525 62.0509C91.9349 62.0699 92.2959 62.1364 92.7139 62.1966C93.3472 62.2916 94.1864 62.3771 94.18 62.2409L94.1832 62.2156ZM94.3795 72.1779L94.4049 72.1146C94.3985 72.1367 94.3922 72.1557 94.3827 72.1779H94.3795ZM87.9702 67.0701C87.9156 68.2307 88.0722 69.3917 88.4325 70.4964C88.5039 70.9637 88.6671 71.4122 88.9128 71.816C89.1584 72.2199 89.4817 72.571 89.8639 72.8492C90.6397 73.1596 91.4979 73.1659 92.2959 72.9537C93.1097 72.8524 93.8697 72.5041 94.5125 71.9499C94.9722 71.4327 95.2394 70.7728 95.2694 70.0816C95.3074 68.5679 94.9907 67.0669 94.3194 65.6957C94.0736 65.0923 93.7109 64.5434 93.2522 64.0807C92.1882 63.1307 90.6049 63.0674 89.4649 63.9224C89.0532 64.2581 88.7302 64.6824 88.5149 65.1701C88.2207 65.7653 88.0372 66.4091 87.9734 67.0701H87.9702Z" fill="white"/>
<path d="M91.2692 67.9504C90.8748 67.8006 90.4679 67.6862 90.0532 67.6084C90.9399 67.6717 91.4022 67.3139 91.4846 66.538L91.6492 64.9547C91.617 65.6577 91.7539 66.3581 92.0482 66.9972C92.1496 67.1746 92.2952 67.3202 92.4694 67.4247L92.9982 67.5926C93.1946 67.6622 93.3972 67.7065 93.6062 67.7255C92.6372 67.64 92.1116 67.8839 92.0324 68.4222L91.7157 69.958C91.6999 68.7547 91.5352 68.1056 91.2407 67.9821L91.2692 67.9504ZM90.0532 70.3507L90.1546 69.3532C90.1407 69.786 90.2196 70.2168 90.3857 70.6167C90.4554 70.7244 90.5504 70.8162 90.6644 70.8859L90.9811 70.9809C91.1077 71.0221 91.2344 71.0506 91.3611 71.0632C90.7689 71.0126 90.4111 71.1582 90.4111 71.4907L90.2464 72.4281C90.2464 71.6871 90.1451 71.2976 89.9519 71.2247C89.7136 71.1257 89.4651 71.0535 89.2109 71.0094C89.7556 71.0411 90.0501 70.8131 90.0976 70.3761L90.0532 70.3507ZM53.7696 140.283L53.0001 141.857C52.7752 142.345 52.6442 142.87 52.6137 143.406V143.412C52.6042 143.77 52.7499 144.109 53.0096 144.356C53.322 144.62 53.69 144.811 54.0862 144.913C55.0023 145.127 55.9419 145.224 56.8824 145.201L57.3891 145.204L70.3249 145.052L71.2116 145.049L72.2566 145.052L75.3536 144.938C79.4702 144.577 83.2861 142.405 85.7402 139.074C86.322 138.194 86.8879 137.304 87.4376 136.404L90.6486 131.205L97.2796 120.359L102.115 112.702C102.154 112.643 102.207 112.595 102.269 112.561C102.33 112.526 102.399 112.508 102.47 112.505C102.612 112.499 102.742 112.581 102.786 112.702L107.631 120.359L117.47 136.401L119.171 139.071C120.38 140.734 121.933 142.119 123.724 143.131C125.515 144.144 127.502 144.76 129.551 144.938C130.581 145.026 131.614 145.064 132.648 145.052L133.699 145.049L134.586 145.052C137.425 145.084 140.269 145.116 143.117 145.147L147.55 145.201L148.057 145.198C148.754 145.207 149.451 145.161 150.141 145.062C150.793 144.999 151.417 144.755 151.933 144.349C152.063 144.23 152.165 144.083 152.233 143.92C152.302 143.758 152.334 143.582 152.329 143.406V143.393C152.297 142.855 152.171 142.332 151.949 141.81C151.721 141.262 151.426 140.714 151.176 140.249L150.644 139.333L139.688 119.383C135.539 111.657 131.393 103.93 127.249 96.2034C127.195 96.0989 127.186 95.9754 127.227 95.8646C127.268 95.7537 127.353 95.6619 127.461 95.6176C132.854 93.4136 137.265 88.8726 140.929 84.3506C145.799 78.1439 150.125 71.5255 153.865 64.581L157.655 57.2914C154.749 61.6686 151.146 65.5409 146.99 68.7547C140.878 73.6789 130.523 78.5714 115.941 83.3214C101.902 87.9088 91.5743 93.2499 84.9581 99.3447L78.3271 105.244C76.9243 106.71 75.5456 108.198 74.1914 109.709C70.8442 113.522 67.7092 117.515 64.8022 121.673L61.5912 126.233L54.3079 139.333L53.7759 140.271" fill="white"/>
<path d="M164.046 46.8666C163.913 47.18 163.72 47.4649 163.479 47.7058L162.542 48.7508L162.536 48.7571C161.94 49.5044 161.386 50.2834 160.87 51.0878H160.873L158.581 54.9416L153.568 64.4796C149.837 71.4083 145.524 78.0076 140.664 84.1984C137.012 88.7141 132.633 93.2044 127.326 95.3768C127.136 95.4559 126.977 95.6143 126.908 95.8138C126.838 96.0133 126.854 96.2318 126.952 96.4471C131.107 104.167 135.255 111.894 139.397 119.627L150.354 139.545L150.886 140.486L151.646 142.022C151.852 142.47 151.973 142.952 152.003 143.444V143.459C152.016 143.725 151.908 143.985 151.712 144.166C151.237 144.523 150.677 144.742 150.084 144.799C149.41 144.894 148.732 144.935 148.051 144.932H147.497C146.06 144.932 144.609 144.894 143.153 144.881C140.307 144.848 137.463 144.816 134.622 144.786L133.849 144.78L132.646 144.783C131.616 144.783 130.6 144.77 129.615 144.675C127.613 144.5 125.671 143.898 123.921 142.91C122.17 141.922 120.651 140.57 119.466 138.947L118.886 138.06L107.942 120.251L103.097 112.588C102.961 112.375 102.724 112.246 102.47 112.246C102.217 112.246 101.983 112.372 101.843 112.588C101.84 112.594 98.1828 118.319 96.9984 120.251L90.3769 131.037L87.1691 136.23L86.0608 137.997L85.4813 138.884C83.0841 142.171 79.3823 144.257 75.3321 144.615C74.3504 144.71 73.3371 144.723 72.3016 144.723C71.9026 144.723 71.5004 144.72 71.0983 144.72L70.3256 144.726C67.4819 144.751 64.6383 144.783 61.7946 144.821L57.4499 144.872H56.8958C55.9838 144.894 55.0749 144.799 54.1883 144.593C53.8399 144.511 53.5138 144.346 53.2383 144.112C53.0419 143.931 52.9343 143.668 52.9533 143.402V143.39C52.9849 142.899 53.1053 142.414 53.3111 141.965C53.5328 141.436 53.8178 140.898 54.0648 140.429L54.5936 139.492L65.5503 119.573C69.6944 111.847 73.8385 104.12 77.9826 96.3933C78.0839 96.2096 78.0998 95.9879 78.0301 95.7599C77.9604 95.5319 77.8084 95.4021 77.6121 95.3229C72.3048 93.1538 67.9221 88.6634 64.2741 84.1446C59.4196 77.9506 55.1034 71.3513 51.3763 64.4258L46.3634 54.8878L44.0708 51.0371C43.5546 50.2328 43.0004 49.4538 42.4051 48.7064C42.1043 48.3201 41.7559 47.9781 41.4646 47.6614C41.2239 47.4223 41.0324 47.1383 40.9009 46.8254C40.8281 46.6164 40.7869 46.3979 40.7806 46.1763C40.7679 45.9989 40.8249 45.8279 40.9389 45.6854C41.2237 45.4266 41.5826 45.2638 41.9649 45.2199C42.5587 45.1162 43.161 45.0695 43.7636 45.0806L45.4736 45.1059C48.1674 45.1017 50.859 45.0975 53.5486 45.0933C55.4317 45.0933 57.3159 45.0922 59.2011 45.0901H59.2233C61.3544 45.1851 63.4191 45.8501 65.1988 47.0281C67.0636 48.2133 68.8262 49.5522 70.4681 51.0308C73.4524 53.7378 76.1712 56.7238 78.5874 59.9481C78.7553 60.1603 79.0213 60.2648 79.2841 60.2204C79.5469 60.1761 79.7718 59.9988 79.8636 59.7454C80.7694 57.3262 81.862 54.9811 83.1316 52.7313L83.1443 52.7059C84.6579 49.7071 87.7201 46.8001 90.9438 46.1446C91.829 45.9798 92.7288 45.9055 93.6291 45.9229L96.4158 45.9673H98.6862H108.535L111.321 45.9229C112.221 45.9053 113.119 45.9796 114.003 46.1446C117.227 46.8001 120.292 49.7039 121.806 52.7059L121.819 52.7313C123.087 54.9816 124.18 57.3266 125.087 59.7454C125.182 59.9988 125.403 60.1824 125.666 60.2204C125.929 60.2584 126.205 60.1571 126.363 59.9481C128.778 56.7242 131.496 53.7382 134.479 51.0308C136.124 49.5529 137.888 48.2141 139.755 47.0281C141.534 45.8564 143.599 45.1851 145.73 45.0901H145.749C147.632 45.0901 149.518 45.0912 151.405 45.0933C154.094 45.0975 156.788 45.1017 159.486 45.1059H159.543L161.19 45.0806C161.95 45.0489 162.716 45.1376 163.454 45.3466C163.666 45.4103 163.857 45.5269 164.011 45.6854C164.124 45.8232 164.179 45.9988 164.167 46.1763C164.16 46.3975 164.119 46.6164 164.046 46.8254V46.8666ZM165.136 44.7639C164.642 44.2478 163.986 43.9089 163.28 43.8139C162.59 43.6873 161.887 43.6334 161.19 43.6461L159.48 43.6714C156.784 43.6672 154.089 43.663 151.395 43.6588C149.508 43.6588 147.595 43.6524 145.74 43.6524H145.743H145.721C143.32 43.745 140.989 44.4894 138.979 45.8058C137.041 47.0344 135.179 48.4214 133.501 49.9224C130.752 52.3925 128.237 55.1116 125.989 58.0449C125.15 55.9803 124.184 53.9694 123.098 52.0283C121.347 48.4373 118.139 45.7709 114.288 44.7133C113.338 44.5233 112.306 44.4409 111.305 44.4599L108.519 44.5043H106.248H102.461H98.6736H96.3936C95.5228 44.5043 94.5791 44.4599 93.6133 44.4599C92.6094 44.4409 91.6088 44.5233 90.6239 44.7133C86.7606 45.7773 83.5528 48.4499 81.8048 52.0536C80.7218 53.9916 79.7623 55.9929 78.9231 58.0481C76.6763 55.1138 74.1617 52.3946 71.4118 49.9256C69.7018 48.3929 67.8746 47.0059 65.9398 45.8089C63.9296 44.4925 61.599 43.7482 59.1979 43.6556H59.1568L53.5201 43.6619C50.8263 43.6662 48.1347 43.6704 45.4451 43.6746H45.3913C44.9574 43.6746 44.3684 43.6493 43.7446 43.6493C42.809 43.6135 41.8739 43.7323 40.9769 44.0008C40.5209 44.1495 40.1115 44.4148 39.7894 44.7703C39.4468 45.1772 39.2644 45.6951 39.2764 46.2269C39.2832 46.6018 39.3472 46.9735 39.4664 47.3289C39.6612 47.8401 39.9574 48.3065 40.3373 48.7001L41.2113 49.6659C41.7749 50.3721 42.3038 51.1099 42.7946 51.8731L45.0588 55.6731L50.0621 65.1731C53.8324 72.1756 58.1951 78.8425 63.1024 85.1009C66.6491 89.4773 70.9431 93.9296 76.2916 96.3616C72.2594 103.856 68.2483 111.355 64.2583 118.858L52.7633 139.758L51.9463 141.42C51.6613 142.047 51.5029 142.718 51.4776 143.409V143.44C51.4748 143.77 51.5397 144.097 51.6682 144.4C51.7968 144.703 51.9863 144.977 52.2249 145.204C52.9121 145.774 53.7513 146.132 54.6379 146.227C55.3853 146.332 56.1421 146.385 56.8989 146.373H57.4626L70.3509 146.224L71.1109 146.221H72.3143L75.4873 146.104C79.9649 145.708 84.0531 143.396 86.6973 139.764L87.3306 138.804L98.2873 120.976L101.137 116.441L102.489 114.32L103.838 116.441L106.688 120.976L113.319 131.825L116.534 137.031L117.642 138.804L118.269 139.764C119.577 141.559 121.254 143.054 123.188 144.148C125.121 145.242 127.266 145.91 129.479 146.107C130.534 146.197 131.593 146.236 132.652 146.224H133.855L134.615 146.227L147.51 146.376H148.074C149.119 146.401 150.164 146.287 151.186 146.04C151.766 145.895 152.304 145.606 152.751 145.207C153.242 144.745 153.511 144.099 153.501 143.425V143.409C153.475 142.721 153.316 142.044 153.033 141.417C152.773 140.793 152.463 140.214 152.209 139.751L151.658 138.776L140.721 118.889C136.699 111.395 132.675 103.896 128.649 96.3933C134.001 93.9613 138.285 89.5089 141.835 85.1326C146.744 78.8741 151.109 72.2072 154.882 65.2048L159.885 55.7048L162.149 51.9048C162.638 51.1435 163.165 50.4069 163.726 49.6976V49.7039C163.929 49.4411 164.265 49.1086 164.604 48.7349C164.984 48.3428 165.28 47.8773 165.474 47.3669C165.595 47.0123 165.658 46.6386 165.664 46.2586C165.677 45.7266 165.493 45.2073 165.151 44.8019L165.136 44.7639Z" fill="black"/>
<path d="M270.338 64.2201C267.077 65.9301 265.864 68.8117 265.864 76.7791C267.061 75.7024 268.451 74.8569 269.965 74.2964C271.458 73.732 272.868 72.966 274.154 72.0196C276.909 70.0024 277.333 67.4026 277.333 63.0262C277.333 63.0262 272.843 62.8996 270.335 64.2169" fill="black"/>
<path d="M251.006 66.0819C249.306 67.7393 248.114 69.8475 247.57 72.1588L238.767 106.254L231.446 78.3496C230.733 75.3824 229.451 71.7154 227.418 69.2359C224.827 66.0756 219.564 65.8793 219.001 65.8793C218.437 65.8793 213.174 66.0756 210.584 69.2359C208.551 71.7154 207.265 75.3793 206.553 78.3496L199.269 106.254L190.466 72.1588C189.925 69.8461 188.734 67.7364 187.033 66.0788C182.727 62.2788 176.26 63.0926 176.26 63.0926L193.113 126.812C193.113 126.812 198.674 127.211 201.454 125.793C205.109 123.931 206.847 122.493 209.061 113.823L217.056 81.7759C217.31 80.9779 217.633 79.0684 219.036 79.0684C220.47 79.0684 220.765 80.9748 221.015 81.7759C221.521 83.3593 227.041 106.096 229.011 113.823C231.221 122.49 232.963 123.931 236.611 125.793C239.391 127.211 244.952 126.812 244.952 126.812L261.798 63.0926C261.798 63.0926 255.338 62.2788 251.025 66.0788L251.006 66.0819ZM277.356 73.4666C276.428 74.6948 275.248 75.7099 273.895 76.4433C272.35 77.3046 270.868 77.8904 269.278 78.6536C266.612 79.9329 265.89 81.3579 265.89 83.5303V126.787C265.89 126.787 270.142 127.325 272.92 125.907C276.498 124.083 277.353 122.322 277.353 114.399L277.356 73.4666ZM319.333 95.1076L340.715 63.3048C340.715 63.3048 331.69 61.7689 327.225 65.8381C324.984 68.0731 322.956 70.5113 321.167 73.1214L313.301 84.4644C313.187 84.8211 312.964 85.1326 312.662 85.3544C312.361 85.5763 311.997 85.697 311.623 85.6994C310.853 85.6994 310.175 85.2023 309.944 84.4328L302.1 73.1499C300.311 70.5406 298.285 68.1023 296.043 65.8666C291.609 61.8006 282.553 63.3333 282.553 63.3333L303.934 95.1361L282.606 126.841C282.606 126.841 292.005 128.025 296.47 123.991C298.579 121.916 300.465 119.625 302.097 117.157L309.966 105.814C310.08 105.457 310.304 105.146 310.605 104.924C310.907 104.702 311.27 104.581 311.645 104.579C312.414 104.579 313.092 105.076 313.323 105.846L321.189 117.189C322.899 119.643 324.84 121.929 326.984 124.022C331.417 128.088 340.686 126.872 340.686 126.872L319.362 95.1678" fill="black"/>
</svg>
