<svg width="245" height="56" viewBox="0 0 245 56" fill="none" xmlns="http://www.w3.org/2000/svg">
<path fill-rule="evenodd" clip-rule="evenodd" d="M10.7876 32.0949L8.41949 36.5813L8.45943 51.6312L0.759455 51.6519L0.629416 2.65204L8.32939 2.63139L8.38605 23.9813L18.4094 2.60437L26.1093 2.58373L15.4573 24.4524L26.2394 51.5836L18.3294 51.6048L10.7876 32.0949ZM37.0794 40.2845C37.0841 42.0578 37.4491 43.3051 38.1743 44.0265C38.8996 44.7479 39.8689 45.107 41.0822 45.1037C42.2956 45.1005 43.2629 44.7362 43.9843 44.011C44.7057 43.2857 45.0641 42.0364 45.0594 40.2631L44.9892 13.8032C44.9845 12.0298 44.6195 10.7825 43.8942 10.0611C43.169 9.33968 42.1997 8.98061 40.9864 8.98387C39.773 8.98712 38.8057 9.35138 38.0842 10.0767C37.3628 10.8019 37.0045 12.0512 37.0092 13.8245L37.0794 40.2845ZM29.3105 14.3352C29.3 10.3685 30.2952 7.32087 32.2963 5.19215C34.2973 3.06343 37.1878 1.99402 40.9678 1.98389C44.7478 1.97376 47.6439 3.02765 49.6562 5.14561C51.6685 7.26356 52.6799 10.3058 52.6904 14.2725L52.7581 39.7524C52.7686 43.7191 51.7733 46.7667 49.7723 48.8955C47.7713 51.0242 44.8808 52.0936 41.1008 52.1037C37.3208 52.1138 34.4247 51.06 32.4124 48.942C30.4001 46.824 29.3887 43.7818 29.3781 39.8151L29.3105 14.3352ZM65.315 15.9887L65.4092 51.4785L58.4792 51.4971L58.3492 2.49729L68.0092 2.47139L75.997 31.7801L75.9191 2.45019L82.7791 2.4318L82.9092 51.4316L74.9992 51.4528L65.315 15.9887ZM88.1503 14.1774C88.1398 10.2108 89.0767 7.16327 90.9611 5.03487C92.8454 2.90647 95.6776 1.83721 99.4576 1.82708C103.238 1.81695 106.075 2.871 107.971 4.98927C109.867 7.10754 110.82 10.15 110.83 14.1166L110.834 15.6566L103.554 15.6761L103.549 13.6462C103.544 11.8728 103.203 10.6254 102.524 9.90389C101.845 9.18237 100.899 8.82324 99.6861 8.82649C98.4728 8.82975 97.5288 9.19394 96.854 9.91909C96.1793 10.6442 95.8443 11.8935 95.849 13.6668C95.8534 15.3468 96.2307 16.8274 96.9808 18.1088C97.7308 19.3901 98.6674 20.6009 99.7904 21.7413C100.913 22.8816 102.118 24.0217 103.405 25.1616C104.691 26.3015 105.896 27.5466 107.019 28.8969C108.143 30.2472 109.08 31.7847 109.832 33.5094C110.583 35.234 110.962 37.263 110.968 39.5964C110.978 43.563 110.018 46.6106 108.087 48.7391C106.156 50.8676 103.301 51.937 99.5206 51.9471C95.7406 51.9572 92.8795 50.9032 90.9372 48.7851C88.9949 46.6669 88.0185 43.6246 88.0079 39.6579L87.9999 36.6479L95.2799 36.6284L95.2892 40.1284C95.2939 41.9017 95.6589 43.1374 96.384 43.8355C97.1092 44.5335 98.0785 44.8809 99.2918 44.8777C100.505 44.8744 101.473 44.5218 102.194 43.8199C102.915 43.118 103.274 41.8803 103.269 40.107C103.265 38.427 102.887 36.9464 102.137 35.665C101.387 34.3837 100.451 33.1729 99.3277 32.0325C98.2047 30.8922 97 29.7521 95.7136 28.6122C94.4273 27.4723 93.2223 26.2272 92.0987 24.8769C90.9751 23.5266 90.0377 21.9891 89.2865 20.2644C88.5352 18.5397 88.1565 16.5108 88.1503 14.1774ZM113.829 2.34855L137.629 2.28474L137.647 9.28472L129.598 9.3063L129.709 51.3062L122.009 51.3268L121.898 9.32694L113.848 9.34853L113.829 2.34855ZM158.009 51.2303C157.915 50.9038 157.82 50.6008 157.726 50.321C157.632 50.0413 157.55 49.6915 157.479 49.2717C157.407 48.8519 157.359 48.3153 157.334 47.6621C157.309 47.0088 157.295 46.1922 157.293 45.2122L157.272 37.5122C157.266 35.2255 156.865 33.6166 156.07 32.6854C155.274 31.7542 153.989 31.291 152.216 31.2957L149.556 31.3028L149.609 51.2528L141.909 51.2734L141.779 2.27359L153.399 2.24244C157.412 2.23168 160.32 3.15721 162.121 5.01907C163.923 6.88092 164.829 9.70181 164.839 13.4818L164.849 17.3318C164.862 22.3718 163.191 25.6896 159.835 27.2853C161.797 28.0734 163.142 29.3647 163.871 31.1595C164.599 32.9542 164.966 35.1349 164.973 37.7015L164.993 45.2615C164.996 46.4748 165.046 47.5364 165.141 48.4461C165.237 49.3559 165.473 50.2769 165.849 51.2092L158.009 51.2303ZM149.497 9.25295L149.537 24.3029L152.547 24.2948C153.994 24.2909 155.125 23.9146 155.939 23.1657C156.754 22.4169 157.159 21.0625 157.154 19.1025L157.141 14.2725C157.136 12.4991 156.818 11.2167 156.186 10.425C155.553 9.63338 154.561 9.23938 153.207 9.243L149.497 9.25295ZM178.059 2.17635L178.159 39.9762C178.164 41.7496 178.529 42.9852 179.254 43.6833C179.979 44.3814 180.948 44.7288 182.162 44.7255C183.375 44.7223 184.342 44.3697 185.064 43.6677C185.785 42.9658 186.144 41.7282 186.139 39.9548L186.039 2.15496L193.319 2.13544L193.418 39.4453C193.428 43.412 192.468 46.4595 190.537 48.5881C188.606 50.7166 185.75 51.7859 181.97 51.796C178.19 51.8062 175.329 50.7522 173.387 48.634C171.445 46.5159 170.468 43.4735 170.458 39.5069L170.359 2.197L178.059 2.17635ZM220.399 2.06284L244.199 1.99903L244.217 8.99901L236.167 9.02059L236.279 51.0204L228.579 51.0411L228.467 9.04123L220.417 9.06281L220.399 2.06284Z" fill="#1A1A1A"/>
<path fill-rule="evenodd" clip-rule="evenodd" d="M194.067 25.6369L214 0.456024L214.133 50.7106L194.067 25.6369Z" fill="#1A1A1A"/>
</svg>
